<svg width="31" height="34" viewBox="0 0 31 34" fill="none" xmlns="http://www.w3.org/2000/svg">
<path d="M28.7047 14.8992L14.6994 28.9046C12.008 31.596 7.68264 31.6306 5.0339 28.9819C2.38516 26.3332 2.41976 22.0078 5.11122 19.3164L20.3344 4.09319C21.1419 3.2857 22.232 2.82697 23.3649 2.81791C24.4978 2.80884 25.5807 3.25019 26.3754 4.04486C27.17 4.83954 27.6114 5.92243 27.6023 7.05533C27.5933 8.18823 27.1345 9.27832 26.327 10.0858L13.5396 22.8733C12.8697 23.5431 11.7824 23.5518 11.1232 22.8926C10.464 22.2334 10.4727 21.1461 11.1425 20.4762L22.7121 8.90662L20.9143 7.10883L9.34472 18.6785C8.53723 19.4859 8.0785 20.576 8.06943 21.7089C8.06037 22.8418 8.50172 23.9247 9.29639 24.7194C10.0911 25.5141 11.174 25.9554 12.3069 25.9464C13.4398 25.9373 14.5299 25.4786 15.3373 24.6711L28.1248 11.8836C30.8163 9.19214 30.8509 4.86682 28.2021 2.21808C25.5534 -0.430657 21.2281 -0.396053 18.5366 2.29541L3.31344 17.5186C-0.388842 21.2209 -0.436396 27.1652 3.20712 30.8087C6.85063 34.4522 12.7949 34.4046 16.4972 30.7024L30.5025 16.697L28.7047 14.8992Z" fill="white"/>
</svg>
