<svg width="297" height="184" viewBox="0 0 297 184" fill="none" xmlns="http://www.w3.org/2000/svg">
<g opacity="0.3">
<g opacity="0.5">
<path d="M297 114.484C297 53.5262 253.397 17.2531 226.213 0.555603C222.763 -1.56171 219.041 2.83818 221.679 5.91946C230.151 15.8243 240.042 29.9845 246.714 47.8353C240.672 46.1104 234.293 45.1912 227.703 45.1912C189.434 45.1912 158.407 76.2141 158.407 114.487C158.407 152.761 189.434 183.78 227.703 183.78C265.973 183.78 297 152.757 297 114.484Z" fill="#00ECFF"/>
<path d="M138.589 114.484C138.589 53.5262 94.9863 17.2531 67.8021 0.555603C64.3524 -1.56171 60.6308 2.83818 63.2679 5.91946C71.7406 15.8243 81.6317 29.9845 88.3038 47.8353C82.2617 46.1105 75.8823 45.1912 69.2928 45.1912C31.0229 45.1912 0 76.2141 0 114.484C0 152.754 31.0229 183.78 69.2962 183.78C107.57 183.78 138.589 152.757 138.589 114.484Z" fill="#00ECFF"/>
</g>
</g>
</svg>
