<svg width="729" height="654" viewBox="0 0 729 654" fill="none" xmlns="http://www.w3.org/2000/svg">
<mask id="mask0_1_27" style="mask-type:alpha" maskUnits="userSpaceOnUse" x="0" y="0" width="729" height="654">
<path d="M705.56 44.2257C673.429 -2.17943 589.658 -24.0099 508.943 39.1796C418.118 110.281 289.998 145.489 175.452 163.958C57.5247 182.968 1.60408 270.123 0.0424724 324.158C-1.6791 383.407 48.6807 457.298 197.726 547.616C346.772 637.926 450.592 662.92 539.581 651.364C628.577 639.801 686.767 587.146 715.783 499.458C736.068 438.143 724.711 364.64 719.965 266.342C714.046 143.584 752.012 111.341 705.56 44.2257Z" fill="#8543BF"/>
</mask>
<g mask="url(#mask0_1_27)">
<mask id="mask1_1_27" style="mask-type:luminance" maskUnits="userSpaceOnUse" x="-26" y="0" width="1050" height="700">
<path d="M1024 0H-26V700H1024V0Z" fill="white"/>
</mask>
<g mask="url(#mask1_1_27)">
<path d="M1030.36 -4.24219H-32.3564V704.228H1030.36V-4.24219Z" fill="url(#paint0_radial_1_27)"/>
</g>
<mask id="mask2_1_27" style="mask-type:luminance" maskUnits="userSpaceOnUse" x="-26" y="0" width="1050" height="700">
<path d="M1024 0H-26V700H1024V0Z" fill="white"/>
</mask>
<g mask="url(#mask2_1_27)">
<path opacity="0.53" d="M1073.27 490.797C1042.33 543.605 985.626 578.143 925.874 591.429C866.136 604.715 803.5 598.527 744.042 583.995C676.31 567.447 610.622 540.147 541.098 534.785C474.066 529.605 404.78 546.097 349.844 584.849C294.908 623.601 255.484 685.145 247.756 751.925H1073.27V490.797Z" fill="url(#paint1_linear_1_27)"/>
<path opacity="0.53" d="M-57.8223 234.696C26.2197 95.9135 198.588 38.7795 351.622 84.3915C422.462 105.504 486.092 142.492 559.718 155.61C632.28 168.546 703.904 164.78 767.814 125.034C825.214 89.3335 868.6 32.1435 888.41 -32.3965H-53.7623L-57.8223 234.696Z" fill="url(#paint2_linear_1_27)"/>
</g>
<mask id="mask3_1_27" style="mask-type:luminance" maskUnits="userSpaceOnUse" x="-26" y="0" width="1050" height="700">
<path d="M1024 0H-26V700H1024V0Z" fill="white"/>
</mask>
<g mask="url(#mask3_1_27)">
<path d="M1102.04 333.494C1092.21 414.792 1019.49 476.826 941.33 501.27C909.914 511.098 877.041 516.222 844.127 516.446C765.923 516.978 690.365 490.14 612.987 478.828C488.947 460.684 359.237 483.686 249.001 543.382C138.766 603.078 48.6195 699.146 -3.97852 812.938" stroke="#0051B2" stroke-width="0.5" stroke-miterlimit="10" stroke-linecap="round" stroke-linejoin="round"/>
<path d="M-10.6982 793.142C44.0278 680.386 136.092 586.236 247.448 528.934C275.924 514.276 305.618 502.054 336.124 492.324C424.842 464.03 520.406 456.89 612.96 470.33C653.406 476.196 693.39 485.856 733.514 493.318C770.376 500.192 807.28 505.218 844.59 503.986C877.364 502.908 909.998 496.958 941.064 486.374C1017.95 460.488 1088.92 398.16 1099.28 317.296" stroke="#0C59B6" stroke-width="0.5238" stroke-miterlimit="10" stroke-linecap="round" stroke-linejoin="round"/>
<path d="M-17.418 773.317C39.45 661.597 133.432 569.379 245.894 514.443C274.65 500.401 304.582 488.809 335.256 479.765C424.464 453.431 520.112 448.433 612.904 461.803C653.504 467.655 693.656 476.853 733.948 483.517C770.936 489.663 807.854 493.681 845.024 491.497C877.672 489.565 910.012 482.691 940.756 471.463C1016.29 443.897 1085.57 381.499 1096.48 301.069" stroke="#1862B9" stroke-width="0.5476" stroke-miterlimit="10" stroke-linecap="round" stroke-linejoin="round"/>
<path d="M-24.1387 753.507C34.8713 642.823 130.771 552.523 244.339 499.981C273.389 486.541 303.545 475.593 334.401 467.221C424.099 442.847 519.831 439.991 612.861 453.305C653.615 459.129 693.935 467.893 734.395 473.759C771.509 479.177 808.455 482.201 845.471 479.037C877.979 476.251 910.053 468.509 940.475 456.567C1014.69 427.447 1082.27 364.853 1093.69 284.857" stroke="#246ABD" stroke-width="0.5714" stroke-miterlimit="10" stroke-linecap="round" stroke-linejoin="round"/>
<path d="M-30.8584 733.697C30.2936 624.049 128.098 535.668 242.786 485.506C272.116 472.682 302.51 462.364 333.548 454.664C423.736 432.236 519.566 431.549 612.82 444.779C653.728 450.589 694.216 458.892 734.844 463.974C772.07 468.678 809.058 470.694 845.92 466.55C878.302 462.91 910.096 454.3 940.182 441.658C1013.08 411.012 1078.95 348.208 1090.91 268.646" stroke="#3172C1" stroke-width="0.5952" stroke-miterlimit="10" stroke-linecap="round" stroke-linejoin="round"/>
<path d="M-37.5781 713.874C25.7159 605.262 125.438 518.798 241.232 471.03C270.842 458.808 301.474 449.148 332.694 442.12C423.372 421.652 519.286 423.108 612.778 436.282C653.826 442.064 694.496 449.918 735.292 454.202C772.644 458.178 809.66 459.2 846.368 454.09C878.61 449.61 910.138 440.132 939.902 426.762C1011.48 394.604 1075.65 331.562 1088.13 252.434" stroke="#3D7AC4" stroke-width="0.619" stroke-miterlimit="10" stroke-linecap="round" stroke-linejoin="round"/>
<path d="M-44.3125 694.063C21.1095 586.501 122.763 501.941 239.663 456.567C269.567 444.961 300.424 435.931 331.826 429.575C422.994 411.067 519.005 414.665 612.721 427.769C653.923 433.523 694.761 440.929 735.725 444.429C773.189 447.677 810.247 447.691 846.801 441.615C878.917 436.281 910.165 425.949 939.593 411.865C1009.87 378.209 1072.3 314.915 1085.32 236.235" stroke="#4983C8" stroke-width="0.6429" stroke-miterlimit="10" stroke-linecap="round" stroke-linejoin="round"/>
<path d="M-51.0322 674.253C16.5318 567.727 120.09 485.099 238.11 442.091C268.294 431.087 299.388 422.701 330.972 417.017C422.63 400.469 518.726 406.209 612.694 419.257C654.05 424.997 695.056 431.955 736.188 434.657C773.778 437.191 810.85 436.197 847.264 429.155C879.24 422.967 910.222 411.795 939.328 396.969C1008.29 361.829 1069.01 298.269 1082.56 220.023" stroke="#558BCC" stroke-width="0.6667" stroke-miterlimit="10" stroke-linecap="round" stroke-linejoin="round"/>
<path d="M-57.752 654.43C11.9541 548.94 117.43 468.23 236.556 427.616C267.02 417.228 298.352 409.472 330.104 404.474C422.252 389.872 518.446 397.767 612.638 410.745C654.148 416.457 695.322 422.967 736.622 424.871C774.324 426.677 811.438 424.69 847.698 416.668C879.534 409.626 910.264 397.614 939.02 382.06C1006.68 345.45 1065.68 281.624 1079.76 203.812" stroke="#6193CF" stroke-width="0.6905" stroke-miterlimit="10" stroke-linecap="round" stroke-linejoin="round"/>
<path d="M-64.4727 634.619C7.37535 530.165 114.769 451.373 235.001 413.139C265.745 403.367 297.315 396.255 329.249 391.915C421.887 379.273 518.165 389.311 612.595 402.219C654.245 407.903 695.601 413.965 737.069 415.085C774.897 416.163 812.039 413.181 848.131 404.179C879.841 396.283 910.291 383.445 938.725 367.135C1005.09 329.069 1062.35 264.949 1076.96 187.571" stroke="#6D9CD3" stroke-width="0.7143" stroke-miterlimit="10" stroke-linecap="round" stroke-linejoin="round"/>
<path d="M-71.1924 614.796C2.79762 511.378 112.096 434.504 233.448 398.664C264.486 389.494 296.28 383.026 328.396 379.372C421.51 368.69 517.9 380.884 612.554 393.722C654.358 399.392 695.882 405.006 737.518 405.314C775.472 405.678 812.642 401.674 848.58 391.72C880.15 382.97 910.348 369.306 938.432 352.254C1003.5 312.746 1059.03 248.318 1074.18 171.388" stroke="#79A4D7" stroke-width="0.7381" stroke-miterlimit="10" stroke-linecap="round" stroke-linejoin="round"/>
<path d="M-77.9121 594.986C-1.7801 492.618 109.436 417.662 231.894 384.202C263.212 375.648 295.244 369.81 327.542 366.828C421.146 358.092 517.62 372.442 612.512 385.21C654.47 390.852 696.176 396.018 737.966 395.542C776.032 395.178 813.244 390.18 849.028 379.246C880.472 369.642 910.404 355.152 938.152 337.344C1001.94 296.408 1055.72 231.658 1071.4 155.162" stroke="#86ACDA" stroke-width="0.7619" stroke-miterlimit="10" stroke-linecap="round" stroke-linejoin="round"/>
<path d="M-84.6328 575.176C-6.35881 473.844 106.775 400.806 230.339 369.726C261.937 361.774 294.207 356.58 326.687 354.27C420.781 347.494 517.353 363.986 612.483 376.698C654.581 382.312 696.469 387.03 738.427 385.77C776.619 384.678 813.845 378.686 849.489 366.786C880.793 356.328 910.473 341.026 937.871 322.462C1000.38 280.112 1052.41 215.04 1068.62 138.964" stroke="#92B4DE" stroke-width="0.7857" stroke-miterlimit="10" stroke-linecap="round" stroke-linejoin="round"/>
<path d="M-91.3525 555.351C-10.9365 455.055 104.101 383.935 228.786 355.249C260.678 347.913 293.172 343.363 325.82 341.725C420.404 336.909 517.059 355.543 612.427 368.185C654.679 373.785 696.735 378.055 738.861 375.983C777.165 374.177 814.433 367.177 849.923 354.297C881.101 342.985 910.529 326.871 937.577 307.537C998.813 263.787 1049.09 198.365 1065.83 122.737" stroke="#9EBDE2" stroke-width="0.8095" stroke-miterlimit="10" stroke-linecap="round" stroke-linejoin="round"/>
<path d="M-98.0723 535.541C-15.5283 436.281 101.442 367.079 227.232 340.773C259.404 334.039 292.136 330.133 324.966 329.167C420.04 326.311 516.794 347.087 612.386 359.673C654.792 365.245 697.016 369.067 739.31 366.211C777.74 363.677 815.036 355.669 850.372 341.823C881.41 329.657 910.586 312.731 937.284 292.641C997.26 247.491 1045.77 181.719 1063.03 106.525" stroke="#AAC5E5" stroke-width="0.8333" stroke-miterlimit="10" stroke-linecap="round" stroke-linejoin="round"/>
<path d="M-104.792 515.732C-20.106 417.508 98.782 350.238 225.678 326.312C258.13 320.194 291.1 316.918 324.112 316.624C419.676 315.714 516.514 338.646 612.344 351.162C654.904 356.706 697.296 360.08 739.758 356.44C778.3 353.192 815.638 344.176 850.82 329.364C881.732 316.344 910.656 298.62 937.004 277.746C995.734 231.21 1042.47 165.074 1060.26 90.3281" stroke="#B6CDE9" stroke-width="0.8571" stroke-miterlimit="10" stroke-linecap="round" stroke-linejoin="round"/>
<path d="M-111.513 495.908C-24.6847 398.72 96.1073 333.368 224.123 311.836C256.869 306.334 290.063 303.688 323.257 304.08C419.311 305.13 516.233 330.218 612.301 342.65C655.001 348.18 697.575 351.092 740.205 346.654C778.873 342.678 816.239 332.668 851.267 316.876C882.039 303.002 910.739 284.48 936.709 262.836C994.207 214.914 1039.13 148.428 1057.47 74.1016" stroke="#C2D6ED" stroke-width="0.881" stroke-miterlimit="10" stroke-linecap="round" stroke-linejoin="round"/>
<path d="M-118.232 476.098C-29.2624 379.96 93.4476 316.512 222.57 297.36C255.596 292.46 289.028 290.472 322.404 291.522C418.948 294.532 515.968 321.762 612.26 334.138C655.114 339.64 697.856 342.118 740.654 336.882C779.448 332.178 816.828 321.174 851.716 304.402C882.348 289.674 910.824 270.354 936.43 247.926C992.696 198.646 1035.83 131.768 1054.69 57.8896" stroke="#CEDEF0" stroke-width="0.9048" stroke-miterlimit="10" stroke-linecap="round" stroke-linejoin="round"/>
<path d="M-124.952 456.288C-33.8401 361.172 90.7879 299.656 221.016 282.884C254.322 278.6 287.992 277.242 321.55 278.964C418.584 283.92 515.688 313.306 612.232 325.612C655.24 331.1 698.15 333.116 741.116 327.082C780.022 321.664 817.444 309.638 852.178 291.914C882.684 276.346 910.922 256.228 936.15 233.016C991.198 182.364 1032.53 115.108 1051.92 41.6641" stroke="#DBE6F4" stroke-width="0.9286" stroke-miterlimit="10" stroke-linecap="round" stroke-linejoin="round"/>
<path d="M-131.672 436.464C-38.4179 342.398 88.1141 282.786 219.462 268.408C253.062 264.726 286.956 264.012 320.682 266.42C418.206 273.336 515.408 304.864 612.176 317.114C655.338 322.574 698.416 324.142 741.55 317.324C780.582 311.178 818.032 298.158 852.612 279.454C882.978 263.032 911.006 242.13 935.856 218.12C989.714 166.11 1029.19 98.4618 1049.13 25.4658" stroke="#E7EEF8" stroke-width="0.9524" stroke-miterlimit="10" stroke-linecap="round" stroke-linejoin="round"/>
<path d="M-138.393 416.654C-42.9966 323.624 85.4534 265.944 217.907 253.946C251.787 250.88 285.919 250.796 319.827 253.876C417.827 262.752 515.127 296.422 612.133 308.602C655.435 314.034 698.695 315.168 741.997 307.552C781.141 300.678 818.633 286.664 853.059 266.994C883.299 249.718 911.145 228.074 935.561 203.238C988.313 149.968 1025.88 81.8436 1046.33 9.26758" stroke="#F3F7FB" stroke-width="0.9762" stroke-miterlimit="10" stroke-linecap="round" stroke-linejoin="round"/>
<path d="M-145.112 396.844C-22.6403 281.33 151.632 222.936 318.974 241.332C461.494 256.998 601.69 324.996 742.46 297.78C816.212 283.514 883.804 243.04 935.282 188.328C986.76 133.616 1022.57 65.1837 1043.56 -6.94434" stroke="white" stroke-miterlimit="10" stroke-linecap="round" stroke-linejoin="round"/>
</g>
<mask id="mask4_1_27" style="mask-type:luminance" maskUnits="userSpaceOnUse" x="-26" y="0" width="1050" height="700">
<path d="M1024 0H-26V700H1024V0Z" fill="white"/>
</mask>
<g mask="url(#mask4_1_27)">
<path d="M625.042 712.054C770.458 712.054 888.34 597.657 888.34 456.54C888.34 315.424 770.458 201.026 625.042 201.026C479.627 201.026 361.744 315.424 361.744 456.54C361.744 597.657 479.627 712.054 625.042 712.054Z" fill="url(#paint3_radial_1_27)"/>
</g>
<mask id="mask5_1_27" style="mask-type:luminance" maskUnits="userSpaceOnUse" x="-26" y="0" width="1050" height="700">
<path d="M1024 0H-26V700H1024V0Z" fill="white"/>
</mask>
<g mask="url(#mask5_1_27)">
<path d="M455.572 349.678C531.114 349.678 592.352 290.251 592.352 216.944C592.352 143.637 531.114 84.21 455.572 84.21C380.03 84.21 318.792 143.637 318.792 216.944C318.792 290.251 380.03 349.678 455.572 349.678Z" fill="url(#paint4_radial_1_27)"/>
</g>
<mask id="mask6_1_27" style="mask-type:luminance" maskUnits="userSpaceOnUse" x="-26" y="0" width="1050" height="700">
<path d="M1024 0H-26V700H1024V0Z" fill="white"/>
</mask>
<g mask="url(#mask6_1_27)">
<path d="M546.417 264.516L553.361 177.828L440.479 157.36L432.583 222.18C431.841 225.54 431.505 228.984 431.393 232.4C430.987 245.07 433.647 258.104 440.745 268.604C446.485 277.074 455.347 283.668 465.217 285.95L465.091 286.454C466.085 295.694 466.337 305.032 465.861 314.328C465.777 316.316 465.637 318.304 465.483 320.292L465.525 320.614C470.943 327.516 479.861 331.058 488.807 331.884C497.739 332.724 506.741 331.058 515.365 328.58C527.839 325.01 540.369 319.298 548.223 308.966C547.593 297.976 546.921 287 546.291 276.038C546.067 272.202 546.109 268.352 546.417 264.516Z" fill="url(#paint5_linear_1_27)"/>
<path d="M488.22 284.299C499.952 281.107 511.824 276.641 520.742 268.521C506.644 287.911 487.744 303.787 466.198 314.343L465.862 314.329C466.338 305.033 466.086 295.695 465.092 286.455L465.218 285.951C467.584 286.511 469.992 286.805 472.428 286.833C477.776 286.917 483.068 285.699 488.22 284.299Z" fill="url(#paint6_linear_1_27)"/>
<path d="M483.684 234.893C483.908 237.049 483.782 239.247 483.488 241.459L483.278 241.431C470.048 240.997 456.566 241.291 443.938 245.267C443.574 243.139 443.476 240.955 443.658 238.813C456.286 233.577 470.16 232.401 483.376 234.837C483.488 234.865 483.572 234.879 483.684 234.893Z" fill="url(#paint7_linear_1_27)"/>
<path d="M482.731 245.953C482.493 247.199 482.242 248.473 481.934 249.705C471.546 249.215 461.018 253.219 453.612 260.513L453.541 260.611C451.665 259.379 449.972 257.825 448.586 256.047C446.15 252.925 444.595 249.187 443.938 245.267C456.566 241.291 470.048 240.997 483.278 241.431L483.487 241.459C483.306 242.971 483.039 244.455 482.731 245.953Z" fill="url(#paint8_linear_1_27)"/>
<path d="M453.626 260.526C461.032 253.232 471.56 249.214 481.948 249.718C481.43 251.762 480.758 253.75 479.708 255.57C476.67 260.862 470.524 264.11 464.406 264.082C460.556 264.054 456.776 262.78 453.556 260.624L453.626 260.526Z" fill="url(#paint9_linear_1_27)"/>
<path d="M457.098 272.132C459.898 272.636 462.586 272.916 465.288 272.762C468.004 272.636 470.636 272.104 473.38 271.32C471.14 273.112 468.242 274.008 465.358 274.162C462.488 274.288 459.52 273.686 457.098 272.132Z" fill="#00163D"/>
<path d="M569.49 616.798C564.38 619.08 559.228 621.222 553.978 623.154C535.218 630.07 515.478 634.158 495.528 635.852C490.39 636.314 485.224 636.594 480.072 636.734C479.848 636.734 479.638 636.748 479.428 636.748C465.344 637.084 451.232 636.3 437.274 634.438C426.522 632.996 415.854 630.924 405.34 628.18L405.326 628.264C405.004 641.466 404.696 654.696 404.374 667.898C404.052 680.764 403.758 693.616 403.436 706.482L496.144 705.334L602.488 704.018L618.28 703.822C616.166 668.248 614.08 632.674 611.98 597.1L611.714 596.512C606.66 598.85 601.661 601.286 596.678 603.736C587.633 608.202 578.646 612.71 569.49 616.798Z" fill="url(#paint10_linear_1_27)"/>
<path d="M479.441 637.112C479.931 641.844 480.211 646.534 480.505 651.238L481.303 665.322L481.667 672.364L481.835 675.892C481.877 677.096 481.961 678.146 482.325 678.51C482.633 678.958 483.935 679.168 485.041 679.42C486.175 679.672 487.323 679.868 488.471 680.036C490.781 680.414 493.119 680.624 495.485 680.806C493.147 681.24 490.753 681.408 488.359 681.408C487.169 681.394 485.965 681.338 484.761 681.24C484.159 681.184 483.571 681.128 482.927 681.016C482.297 680.904 481.513 680.708 480.813 680.106C480.113 679.476 479.805 678.664 479.637 677.978C479.469 677.278 479.441 676.662 479.371 676.088L479.007 672.56C478.797 670.208 478.643 667.842 478.489 665.476C478.265 660.744 478.167 656.012 478.307 651.28C478.447 646.548 478.769 641.816 479.441 637.112Z" fill="#00163D"/>
<path d="M495.583 636.384C496.185 642.138 496.507 647.878 496.745 653.618C496.997 659.358 497.067 665.112 497.123 670.852C497.067 682.346 497.109 693.826 496.143 705.334C495.471 699.594 495.079 693.854 494.785 688.114C494.617 685.244 494.519 682.374 494.435 679.49L494.323 670.866C494.323 665.112 494.365 659.372 494.561 653.618C494.743 647.878 495.023 642.124 495.583 636.384Z" fill="#00163D"/>
<path d="M596.677 603.75C597.643 612.08 598.427 620.424 599.029 628.782C599.365 632.954 599.617 637.126 599.897 641.312C600.177 645.484 600.331 649.67 600.639 653.842C601.157 662.2 601.633 670.572 601.941 678.93C602.291 687.302 602.473 695.674 602.459 704.046C601.381 695.716 600.471 687.372 599.757 679.028C599.001 670.684 598.399 662.34 597.839 653.996C597.377 645.638 597.055 637.266 596.845 628.894C596.621 620.522 596.565 612.136 596.677 603.75Z" fill="#00163D"/>
<path d="M569.489 616.756C570.343 621.012 571.239 625.198 572.583 629.188C573.941 633.164 575.691 636.986 578.127 640.29C580.507 643.594 583.657 646.366 587.255 648.368C590.867 650.342 594.997 651.462 599.337 651.238C595.193 652.638 590.419 652.12 586.303 650.328C582.145 648.564 578.547 645.582 575.859 641.928C573.227 638.26 571.463 634.06 570.483 629.762C569.489 625.478 569.181 621.082 569.489 616.756Z" fill="#00163D"/>
<path d="M437.231 634.704C436.629 638.904 435.607 643.048 434.067 647.066C432.555 651.084 430.455 654.934 427.697 658.336C424.897 661.71 421.383 664.538 417.365 666.33C413.389 668.136 408.825 668.878 404.653 667.898C408.909 667.702 412.857 666.386 416.371 664.37C419.871 662.34 422.979 659.666 425.527 656.544C428.131 653.422 430.203 649.88 432.065 646.184C433.927 642.488 435.509 638.596 437.231 634.704Z" fill="#00163D"/>
<path d="M395.246 424.886C390.332 427 385.656 429.548 381.092 432.334C374.512 436.338 368.184 440.818 361.786 445.13C350.908 452.466 339.47 459.48 326.702 462.518C324.168 463.12 321.55 463.554 318.918 463.792C308.334 464.716 297.442 462.476 289.252 455.882C279.928 448.378 275.294 436.268 274.314 424.34C273.348 412.44 275.588 400.512 277.828 388.766C283.358 359.772 288.874 330.792 294.404 301.812L294.628 301.56C293.004 300.132 291.576 298.48 290.316 296.73C289.798 296.016 289.294 295.288 288.818 294.546C288.566 294.168 288.342 293.79 288.118 293.412C287.88 293.034 287.67 292.642 287.446 292.264C287.222 291.872 287.012 291.48 286.816 291.088C286.62 290.724 286.438 290.36 286.256 289.982C286.046 289.562 285.836 289.128 285.654 288.694C285.416 288.176 285.192 287.644 284.982 287.112C284.842 286.79 284.716 286.468 284.604 286.146C284.324 285.418 284.072 284.69 283.848 283.962C283.722 283.598 283.61 283.234 283.512 282.856C283.4 282.492 283.302 282.128 283.204 281.75C283.092 281.372 283.008 280.994 282.924 280.616C282.84 280.28 282.756 279.93 282.686 279.58C282.616 279.244 282.546 278.894 282.49 278.558C282.406 278.124 282.336 277.676 282.266 277.242C281.16 270.06 281.734 262.234 277.828 256.088L277.772 256.004C276.96 256.55 276.064 256.942 275.056 257.082C272.522 257.404 270.002 255.906 268.546 253.806C267.104 251.706 266.544 249.102 266.334 246.554C266.222 245.112 266.208 243.656 266.278 242.214C266.292 241.738 266.32 241.262 266.362 240.786C266.362 240.618 266.376 240.45 266.404 240.296C266.432 239.834 266.488 239.386 266.544 238.938C266.6 238.392 266.67 237.846 266.754 237.3C267.006 235.55 267.342 233.814 267.734 232.092C268.504 228.648 269.512 225.162 271.57 222.306C273.642 219.45 276.974 217.294 280.502 217.49C283.05 217.616 285.374 218.932 287.586 220.262C287.978 219.562 288.412 218.876 288.888 218.218C290.974 215.334 293.886 212.884 297.33 211.988C300.76 211.078 304.75 211.918 307.13 214.55C308.768 212.688 310.938 211.204 313.402 210.826C315.964 210.434 318.61 211.232 320.766 212.66C322.95 214.102 324.672 216.104 326.184 218.218H326.352C326.352 215.502 326.268 212.772 326.1 210.07C326.03 209.286 325.988 208.502 325.708 207.788C325.4 206.99 324.868 206.332 324.336 205.674C321.732 202.37 319.45 198.506 319.464 194.292C319.464 193.13 319.66 191.94 320.248 190.946C321.186 189.322 323.034 188.37 324.896 188.216C326.744 188.048 328.62 188.566 330.314 189.322C337.314 192.416 341.99 199.346 344.174 206.668C346.372 213.976 346.428 221.732 346.47 229.362C346.526 239.792 346.568 250.222 346.61 260.666L346.68 260.736C353.176 254.8 358.958 248.052 363.816 240.716C364.768 239.26 365.72 237.762 367.064 236.67C368.422 235.578 370.284 234.948 371.922 235.48C374.652 236.404 375.464 239.82 375.506 242.676C375.59 247.884 374.582 253.092 372.566 257.866C370.998 261.576 368.842 264.992 366.784 268.436C362.01 276.416 357.67 284.774 351.608 291.844C346.974 297.234 341.164 301.924 334.556 304.276L334.64 304.584C337.356 323.12 339.008 341.796 339.568 360.514C339.918 371.84 339.862 383.194 339.4 394.534L339.708 394.548C339.82 394.478 339.946 394.422 340.058 394.352C350.95 388.402 361.324 381.458 370.97 373.66C374.12 379.036 377.018 384.594 379.902 390.124C384.032 398.034 388.162 405.986 391.34 414.302C392.698 417.83 393.846 421.386 395.246 424.886Z" fill="url(#paint11_linear_1_27)"/>
<path d="M366.784 268.437C364.894 272.721 362.892 276.935 360.624 281.037C358.37 285.139 355.766 289.115 352.686 292.755C349.55 296.353 345.938 299.587 341.752 301.953C337.622 304.333 332.876 305.859 328.172 305.803C332.736 304.697 336.88 302.695 340.59 300.105C344.3 297.515 347.618 294.379 350.558 290.935C353.54 287.505 356.158 283.725 358.762 279.903C361.366 276.067 363.9 272.133 366.784 268.437Z" fill="#00163D"/>
<path d="M339.666 266.658C341.584 264.292 343.628 262.164 345.728 260.12C347.758 257.992 349.788 255.878 351.776 253.722C353.792 251.594 355.738 249.41 357.74 247.254C359.728 245.084 361.688 242.872 363.816 240.73C362.654 243.516 361.156 246.134 359.448 248.612C357.768 251.104 355.85 253.428 353.82 255.64C351.748 257.81 349.578 259.896 347.198 261.73C344.776 263.508 342.284 265.202 339.666 266.658Z" fill="#00163D"/>
<path d="M323.272 247.269C323.734 242.397 324.196 237.581 324.504 232.751C324.784 227.935 324.98 223.119 324.952 218.303L324.798 211.093C324.798 210.491 324.798 209.875 324.742 209.329C324.7 208.769 324.63 208.391 324.434 207.971C324.084 207.187 323.202 206.165 322.53 205.115C321.13 203.029 319.954 200.733 319.366 198.241C319.1 196.995 318.96 195.721 319.072 194.461C319.156 193.215 319.478 191.927 320.234 190.933C319.744 192.067 319.716 193.285 319.856 194.447C319.982 195.623 320.262 196.757 320.696 197.849C321.536 200.019 322.852 201.979 324.308 203.827C325.022 204.779 325.89 205.507 326.646 206.893C327.01 207.565 327.206 208.391 327.276 209.035C327.374 209.707 327.402 210.295 327.444 210.911L327.738 218.289C327.71 223.203 327.402 228.117 326.66 232.961C325.946 237.833 324.868 242.635 323.272 247.269Z" fill="#00163D"/>
<path d="M326.17 218.219C324.91 216.707 323.552 215.279 322.04 214.103C320.514 212.927 318.792 212.059 316.972 211.709C315.166 211.331 313.318 211.485 311.722 212.255C310.112 213.011 308.712 214.229 307.606 215.671C305.422 218.597 304.148 222.335 302.818 225.975C301.516 229.629 300.41 233.325 299.654 237.105C298.856 240.857 298.38 244.707 298.366 248.487C298.366 250.321 298.646 252.099 299.528 253.429C300.424 254.759 301.88 255.669 303.336 255.389C304.848 255.137 306.262 253.849 307.578 252.477C308.908 251.119 310.084 249.593 311.134 247.997C313.29 244.805 314.732 241.137 315.6 237.301C315.362 241.249 314.158 245.127 312.324 248.697C311.372 250.461 310.238 252.155 308.95 253.709C307.69 255.207 306.192 256.929 303.784 257.545C302.608 257.839 301.25 257.671 300.172 257.139C299.08 256.607 298.198 255.795 297.512 254.857C296.14 252.925 295.79 250.629 295.72 248.571C295.65 244.483 296.126 240.507 296.924 236.559C297.764 232.639 298.926 228.803 300.354 225.093C301.082 223.231 301.824 221.411 302.678 219.591C303.532 217.757 304.554 215.951 305.926 214.355C307.312 212.773 309.006 211.387 311.036 210.617C313.052 209.833 315.334 209.819 317.322 210.435C319.324 211.051 321.088 212.199 322.53 213.585C323.986 214.915 325.162 216.539 326.17 218.219Z" fill="#00163D"/>
<path d="M307.157 214.593C305.435 213.011 303.181 212.269 300.983 212.213C298.771 212.143 296.629 212.829 294.795 213.977C292.961 215.139 291.379 216.693 290.119 218.471C289.517 219.381 288.957 220.333 288.411 221.299C287.893 222.279 287.431 223.301 286.997 224.337C285.331 228.523 283.861 232.919 282.923 237.287C282.013 241.669 281.789 246.177 283.007 250.391L282.979 250.307C283.133 250.825 283.245 251.189 283.399 251.567C283.539 251.945 283.707 252.323 283.889 252.659C284.267 253.359 284.729 253.961 285.303 254.381C286.437 255.249 288.117 255.445 289.685 254.983C291.267 254.563 292.681 253.555 293.857 252.253C295.047 250.965 296.027 249.439 297.021 247.927C296.321 249.593 295.593 251.259 294.529 252.785C293.479 254.283 292.023 255.711 290.147 256.397C288.341 257.111 286.045 257.209 284.169 256.005C282.335 254.829 281.369 252.757 280.795 251.161L280.767 251.091C279.983 248.767 279.605 246.331 279.535 243.909C279.465 241.473 279.773 239.079 280.221 236.741C280.669 234.389 281.313 232.107 282.069 229.881C282.839 227.655 283.609 225.457 284.617 223.287C285.583 221.117 286.815 219.017 288.313 217.085C289.867 215.209 291.729 213.529 293.941 212.423C296.125 211.317 298.673 210.771 301.081 211.163C303.475 211.499 305.757 212.717 307.157 214.593Z" fill="#00163D"/>
<path d="M266.74 237.301C266.894 240.213 267.006 243.055 267.37 245.813C267.734 248.543 268.378 251.231 269.806 253.177C271.22 255.081 273.586 256.397 275.84 255.767C278.178 255.179 280.138 252.911 281.93 250.657C281.552 252.071 280.978 253.429 280.152 254.717C279.312 255.963 278.15 257.181 276.568 257.825C275.028 258.553 273.068 258.469 271.5 257.867C269.89 257.265 268.56 256.187 267.552 254.843C265.578 252.099 265.172 248.865 265.2 245.939C265.242 242.971 265.76 240.045 266.74 237.301Z" fill="#00163D"/>
<path d="M282.265 277.242C283.329 280.336 284.449 283.304 285.765 286.174C287.109 289.03 288.607 291.774 290.357 294.35C291.211 295.666 292.121 296.926 293.101 298.116C294.067 299.32 295.103 300.454 296.265 301.448C298.505 303.506 301.249 305.06 304.469 305.69C301.207 306.25 297.679 305.144 294.935 303.184C292.065 301.294 289.895 298.634 288.047 295.904C286.227 293.118 284.743 290.122 283.763 286.958C282.741 283.808 282.181 280.518 282.265 277.242Z" fill="#00163D"/>
<path d="M338.308 413.084C337.664 404.25 338.14 395.528 338.252 386.778C338.378 382.41 338.49 378.042 338.7 373.66C338.896 369.278 339.12 364.91 339.568 360.5C340.282 364.868 340.66 369.25 340.884 373.646C341.122 378.042 341.136 382.438 341.052 386.834C340.968 389.032 340.898 391.23 340.772 393.428C340.618 395.626 340.422 397.81 340.17 399.994C339.708 404.39 339.148 408.758 338.308 413.084Z" fill="#00163D"/>
<path d="M395.246 424.886C390.332 427 385.656 429.548 381.092 432.334C376.612 424.536 371.684 416.962 365.468 410.494C359.938 404.74 353.316 399.868 345.84 397.026C342.928 395.906 340.31 395.752 340.058 394.352C350.95 388.402 361.324 381.458 370.97 373.66C389.716 405.51 395.61 425.754 395.246 424.886Z" fill="url(#paint12_linear_1_27)"/>
<path d="M687.258 410.606C673.748 414.974 661.848 421.554 651.096 429.646C650.662 429.968 650.228 430.29 649.794 430.626C641.73 437.248 635.486 447.174 630.166 457.632C629.396 459.144 628.64 460.67 627.912 462.196C623.88 454.776 619.974 447.468 616.292 440.09C616.292 440.09 616.264 440.02 616.194 439.88C615.704 438.914 615.228 437.948 614.752 436.982C609.712 455.644 605.904 474.642 604.938 493.864C603.972 513.114 605.918 532.672 612.526 550.774C617.272 563.836 624.426 576.1 627.38 589.708C622.06 591.808 616.866 594.104 611.714 596.526C606.66 598.85 601.662 601.3 596.678 603.75C595.992 604.086 595.306 604.422 594.62 604.758C586.276 608.888 577.946 613.018 569.49 616.798C564.38 619.08 559.228 621.222 553.978 623.154C535.218 630.07 515.478 634.158 495.528 635.866C490.404 636.314 485.224 636.608 480.072 636.748C479.848 636.748 479.652 636.762 479.428 636.762C465.344 637.098 451.232 636.314 437.26 634.452C426.508 633.01 415.84 630.924 405.326 628.18C402.414 627.438 399.516 626.626 396.632 625.772C397.556 603.75 400.286 581.252 403.772 558.866C405.256 549.402 406.866 539.91 407.636 530.348C408.42 520.492 408.308 510.58 408.196 500.668C407.93 476.504 407.664 452.298 405.41 428.232H405.368C403.548 427.896 401.896 428.19 400.272 428.568C399.88 428.666 399.474 428.778 399.082 428.876C398.578 429.002 398.046 429.128 397.584 428.96C396.954 428.736 396.632 428.078 396.352 427.504C395.974 426.622 395.61 425.754 395.246 424.886C393.846 421.386 392.698 417.83 391.34 414.302C388.162 405.986 384.032 398.034 379.902 390.124C377.018 384.594 374.12 379.036 370.97 373.66C369.962 371.924 368.912 370.202 367.848 368.508C366.812 366.87 365.748 365.26 364.642 363.678C390.346 347.242 418.738 334.194 448.46 325.262C454.102 323.554 459.8 322.014 465.54 320.614C470.958 327.516 479.876 331.058 488.808 331.884C497.74 332.724 506.742 331.058 515.366 328.594C527.854 325.024 540.37 319.312 548.224 308.98C548.266 308.91 548.336 308.826 548.378 308.77C561.09 308.798 573.62 309.526 586.024 310.884H586.038C596.09 311.962 606.058 313.46 615.956 315.336C629.102 317.828 642.668 321.188 652.916 329.784C658.418 334.376 662.688 340.27 666.44 346.388C678.34 365.75 685.536 387.968 687.258 410.606Z" fill="url(#paint13_linear_1_27)"/>
<path d="M615.396 437.822C612.498 433.468 610.076 428.82 607.976 424.032C605.862 419.244 604.154 414.274 602.74 409.234C601.368 404.18 600.304 399.042 599.66 393.848C599.002 388.654 598.708 383.418 598.974 378.196C599.87 383.334 600.766 388.43 601.816 393.484C602.88 398.524 604.056 403.536 605.442 408.492C606.786 413.462 608.34 418.362 610.006 423.248C611.686 428.12 613.534 432.95 615.396 437.822Z" fill="#00163D"/>
<path d="M405.409 428.735C404.359 423.471 403.673 418.165 403.225 412.817C402.763 407.483 402.623 402.107 402.749 396.731C402.931 391.355 403.379 385.993 404.303 380.687C405.213 375.381 406.529 370.145 408.489 365.147C407.663 370.439 406.963 375.703 406.473 380.967C405.997 386.245 405.675 391.523 405.549 396.801C405.367 402.093 405.381 407.385 405.395 412.705C405.437 418.039 405.521 423.373 405.409 428.735Z" fill="#00163D"/>
<path d="M448.376 325.177C456.328 332.905 466.338 338.043 476.824 340.815C487.366 343.545 498.412 343.867 509.206 342.439C514.61 341.753 519.972 340.647 525.208 339.149C530.444 337.679 535.526 335.691 540.3 333.115C545.046 330.511 549.47 327.263 553.18 323.273C556.96 319.353 559.914 314.621 561.832 309.441C560.516 314.831 557.744 319.843 554.202 324.183C550.632 328.509 546.222 332.149 541.378 335.019C531.648 340.773 520.602 343.671 509.556 345.225C503.998 345.925 498.37 346.163 492.77 345.827C487.17 345.449 481.598 344.553 476.222 342.915C470.846 341.291 465.694 338.981 460.948 336.027C456.272 333.017 451.932 329.433 448.376 325.177Z" fill="#00163D"/>
<path d="M627.38 589.707C622.06 591.807 616.866 594.103 611.714 596.525C606.66 598.849 601.662 601.299 596.678 603.749C595.992 604.085 595.306 604.421 594.62 604.757C537.92 504.755 602.026 400.315 602.026 400.315C602.026 409.373 614.948 437.205 616.194 439.879C615.704 438.913 615.228 437.947 614.752 436.981C609.712 455.643 605.904 474.641 604.938 493.863C603.972 513.113 605.918 532.671 612.526 550.773C617.272 563.835 624.426 576.099 627.38 589.707Z" fill="url(#paint14_linear_1_27)"/>
<path d="M546.753 207.676C548.363 211.778 547.411 216.762 544.401 219.968C541.391 223.174 536.463 224.448 532.277 223.09C530.065 233.002 530.681 243.53 534.027 253.106C535.875 258.412 538.619 263.508 542.735 267.33C546.851 271.152 552.479 273.56 558.065 273.014C563.651 272.454 568.999 268.576 570.483 263.172C571.673 258.818 570.413 253.974 572.163 249.816C572.947 247.94 574.291 246.358 575.327 244.608C578.603 239.05 578.519 232.218 579.051 225.792C579.821 216.524 582.089 207.396 585.435 199.948C588.879 179.522 578.701 157.486 560.935 146.86C559.395 140.532 555.965 134.694 551.205 130.256C552.045 134.932 551.499 139.846 549.525 144.606C532.487 124.53 507.273 112.966 481.681 106.764C468.563 103.586 454.829 101.668 441.599 104.342C435.187 105.644 429.027 107.996 423.119 110.782C416.917 113.708 410.687 117.362 407.075 123.2C403.435 129.08 402.973 136.64 405.185 143.192C407.397 149.744 412.073 155.302 417.743 159.264C420.753 161.378 424.085 163.072 427.627 164.038C431.099 164.99 434.711 165.228 438.295 165.508C460.821 167.342 483.165 171.5 504.837 177.884C513.363 180.404 521.889 183.302 529.449 187.992C536.995 192.682 543.491 199.388 546.753 207.676Z" fill="url(#paint15_linear_1_27)"/>
<path d="M524.606 167.132C530.472 169.918 536.156 173.712 538.858 179.55C538.984 179.83 539.11 180.124 539.222 180.418C541.378 185.696 540.86 191.786 539.376 197.33C538.41 201.026 536.968 204.694 534.924 207.9C533.398 210.28 531.536 212.422 529.282 214.13C523.024 218.89 514.568 219.744 506.756 218.792C498.958 217.854 491.426 215.32 483.684 213.976C470.034 211.582 455.74 212.94 442.79 217.854C439.164 219.24 435.58 220.892 431.716 221.354C423.302 222.362 414.58 216.706 412.06 208.628L412.074 208.614C415.952 212.842 422.518 214.256 428.356 213.57C434.95 212.8 441.082 209.888 447.424 207.9C455.782 205.268 464.63 204.218 473.38 204.806C484.062 205.534 494.464 208.67 505.16 209.37C512.468 209.832 520.588 208.796 525.502 203.392C528.414 200.158 529.8 195.762 530.276 191.436C531.242 182.672 530.738 171.822 524.816 167.272C524.76 167.23 524.69 167.174 524.606 167.132Z" fill="url(#paint16_linear_1_27)"/>
<path d="M585.085 199.108C586.051 200.508 586.163 202.314 586.079 204.022C585.855 209.636 584.119 215.18 581.095 219.926C580.661 220.598 580.171 221.27 579.429 221.55C578.729 221.788 577.973 221.592 577.259 221.396C572.849 220.108 568.663 218.162 564.379 216.482C554.845 212.702 544.877 210.308 534.923 207.914C536.967 204.694 538.409 201.026 539.375 197.344C540.845 191.8 541.377 185.71 539.221 180.432C554.271 183.162 568.481 189.322 581.879 196.658C583.083 197.288 584.315 197.988 585.085 199.108Z" fill="url(#paint17_linear_1_27)"/>
<path d="M530.289 191.449C529.813 195.775 528.427 200.171 525.515 203.405C520.601 208.809 512.481 209.845 505.173 209.383C504.389 209.327 503.591 209.271 502.807 209.187C494.631 208.403 486.609 206.373 478.461 205.337C476.781 205.113 475.087 204.931 473.393 204.819C470.215 204.609 467.037 204.609 463.873 204.847C458.301 205.211 452.771 206.233 447.437 207.913C441.095 209.901 434.963 212.813 428.369 213.583C428.047 213.625 427.725 213.653 427.389 213.667C421.803 214.101 415.755 212.617 412.087 208.627C411.569 208.081 411.107 207.479 410.701 206.849C408.461 203.321 408.139 198.953 408.027 194.781C407.957 192.415 407.957 190.049 408.265 187.725C408.363 187.011 408.489 186.311 408.657 185.611C410.015 179.927 413.851 175.027 418.527 171.485C423.231 167.971 428.733 165.689 434.291 163.827C438.449 162.441 442.691 161.279 446.975 160.341C456.985 158.129 467.261 157.135 477.523 157.387C478.769 157.415 480.015 157.471 481.261 157.541C486.161 157.807 491.047 158.297 495.933 158.843C496.493 158.899 497.053 158.969 497.613 159.025C505.089 159.851 512.873 160.859 519.537 164.079C521.315 164.919 523.009 165.927 524.605 167.131C524.689 167.173 524.759 167.215 524.829 167.285C528.525 170.127 530.121 175.419 530.555 181.131C530.807 184.575 530.653 188.159 530.289 191.449Z" fill="url(#paint18_linear_1_27)"/>
<path d="M477.524 157.388C475.452 157.332 473.38 157.332 471.308 157.388C470.762 157.402 470.216 157.416 469.67 157.444C469.25 157.458 468.83 157.472 468.41 157.486C467.57 157.528 466.73 157.584 465.89 157.64C464.966 157.696 464.042 157.766 463.118 157.864C462.278 157.934 461.424 158.018 460.584 158.102C459.94 158.172 459.31 158.242 458.68 158.34C457.294 158.508 455.922 158.704 454.55 158.928C453.612 159.068 452.674 159.236 451.75 159.404H451.736C451.106 159.502 450.476 159.628 449.86 159.74C448.894 159.936 447.928 160.132 446.976 160.342L444.862 166.11L436.714 188.286L427.39 213.668C427.726 213.654 428.048 213.626 428.37 213.584C428.776 213.542 429.196 213.486 429.602 213.416C429.882 213.374 430.148 213.332 430.414 213.276C430.638 213.234 430.862 213.192 431.086 213.15C431.534 213.066 431.982 212.968 432.43 212.856C432.878 212.758 433.326 212.646 433.76 212.52C434.194 212.408 434.628 212.282 435.062 212.142C435.65 211.974 436.238 211.792 436.826 211.596C437.218 211.47 437.61 211.344 438.002 211.204C438.786 210.938 439.57 210.658 440.354 210.378C441.32 210.042 442.272 209.692 443.238 209.342C443.854 209.118 444.456 208.908 445.072 208.698C445.856 208.418 446.654 208.166 447.438 207.914C447.942 207.746 448.446 207.606 448.964 207.452C449.202 207.382 449.454 207.326 449.692 207.256C449.776 207.228 449.86 207.214 449.944 207.186C450.042 207.144 450.14 207.116 450.252 207.102C450.49 207.032 450.728 206.976 450.966 206.92C451.134 206.864 451.302 206.822 451.47 206.78C451.582 206.752 451.708 206.724 451.834 206.71C451.932 206.668 452.044 206.654 452.156 206.626C452.436 206.556 452.702 206.486 452.982 206.43C453.01 206.416 453.052 206.416 453.08 206.402C453.276 206.36 453.458 206.318 453.654 206.276C454.018 206.192 454.382 206.122 454.746 206.052C454.76 206.052 454.788 206.038 454.802 206.038C455.054 205.982 455.306 205.94 455.572 205.884C455.67 205.87 455.782 205.856 455.894 205.828C455.992 205.814 456.09 205.8 456.188 205.772C456.496 205.716 456.818 205.66 457.14 205.618C457.308 205.59 457.462 205.562 457.63 205.534C458.162 205.45 458.694 205.38 459.226 205.31C459.464 205.268 459.688 205.24 459.926 205.212C459.982 205.212 460.038 205.198 460.094 205.198C460.57 205.142 461.046 205.086 461.522 205.044C461.606 205.03 461.676 205.03 461.76 205.016H461.816C462.502 204.946 463.188 204.89 463.874 204.848L476.376 170.842L478.77 164.304L481.262 157.542C480.016 157.472 478.77 157.416 477.524 157.388ZM497.614 159.026C497.054 158.97 496.494 158.9 495.934 158.844L492.924 166.866L490.264 173.95L478.462 205.338C479.428 205.45 480.408 205.59 481.374 205.744C481.416 205.758 481.472 205.758 481.514 205.772C482.2 205.87 482.886 205.982 483.586 206.108C483.908 206.15 484.23 206.206 484.552 206.262C484.832 206.318 485.112 206.36 485.406 206.416C486.05 206.528 486.694 206.64 487.338 206.766C487.422 206.78 487.506 206.794 487.59 206.808C488.15 206.906 488.724 207.018 489.284 207.116C489.732 207.2 490.18 207.284 490.628 207.354C490.838 207.396 491.048 207.438 491.258 207.48C491.552 207.522 491.846 207.578 492.14 207.634C493.176 207.816 494.212 207.998 495.262 208.166C495.262 208.166 495.262 208.166 495.276 208.166C495.92 208.278 496.564 208.376 497.208 208.474C497.418 208.516 497.642 208.544 497.852 208.572C498.034 208.6 498.202 208.628 498.384 208.656C498.524 208.67 498.664 208.698 498.804 208.712C499.112 208.754 499.434 208.796 499.756 208.838C500.764 208.978 501.786 209.09 502.808 209.188L513.406 180.614L516.892 171.22L519.538 164.08C512.874 160.86 505.09 159.852 497.614 159.026Z" fill="url(#paint19_linear_1_27)"/>
<path d="M723.601 485.295C718.407 496.327 706.353 503.089 694.117 503.957C693.039 504.041 691.961 504.069 690.883 504.055C677.569 503.845 664.969 497.419 655.001 488.627C645.033 479.835 637.403 468.747 630.151 457.603C630.151 457.603 636.969 437.793 651.095 429.617C650.493 427.181 649.891 424.731 649.289 422.295C642.513 395.037 634.155 368.143 624.313 341.837C620.631 340.633 617.103 339.009 613.799 337.035C603.817 331.099 595.753 322.433 588.263 313.571C582.887 307.215 577.693 300.691 572.737 293.999C570.833 291.437 568.901 288.721 568.271 285.585C567.627 282.449 568.635 278.739 571.435 277.185C573.563 275.995 576.209 276.275 578.505 277.073C584.791 279.229 589.285 284.619 594.017 289.295C599.029 294.223 604.573 298.535 610.285 302.665C612.343 290.513 610.131 277.829 605.105 266.559C599.995 255.065 592.113 244.943 583.041 236.221C580.731 234.009 578.281 231.783 577.007 228.843C575.733 225.903 575.999 222.025 578.561 220.065C581.011 218.189 584.497 218.749 587.535 219.421L587.773 219.519C588.081 218.707 588.613 218.007 589.383 217.545C591.147 216.467 593.415 217.041 595.361 217.713C600.345 219.421 605.119 221.689 609.599 224.447C609.739 224.111 609.935 223.789 610.187 223.495C612.119 221.227 615.773 222.165 618.447 223.467C630.487 229.249 640.847 238.405 648.127 249.591L647.973 249.983C652.607 251.831 656.919 254.281 660.209 257.977C664.773 263.101 666.803 269.961 668.511 276.625C669.631 281.035 670.681 285.473 671.633 289.911C673.355 297.975 674.811 306.151 674.419 314.369C674.265 317.379 673.845 320.403 673.117 323.343L673.803 323.497C685.871 359.631 705.261 392.909 718.393 428.665C722.817 440.719 726.541 453.221 726.933 466.045C727.143 472.611 726.415 479.345 723.601 485.295Z" fill="url(#paint20_linear_1_27)"/>
<path d="M594.018 289.296C596.188 290.612 598.204 292.04 600.206 293.468C602.208 294.896 604.182 296.338 606.128 297.836C608.088 299.32 609.992 300.874 611.896 302.456C613.786 304.052 615.634 305.732 617.314 307.636C614.962 306.684 612.764 305.494 610.622 304.234C608.48 302.974 606.408 301.574 604.434 300.062C602.46 298.55 600.57 296.898 598.792 295.12C597.028 293.356 595.376 291.438 594.018 289.296Z" fill="#00163D"/>
<path d="M647.203 342.776C641.757 344.946 635.597 345.324 629.745 344.386C623.851 343.462 618.209 341.264 613.071 338.24C607.975 335.174 603.383 331.38 599.309 327.166C595.207 322.952 591.567 318.388 588.249 313.572C592.449 317.632 596.523 321.748 600.807 325.584C605.105 329.392 609.599 332.948 614.499 335.832C619.343 338.744 624.635 340.942 630.151 342.244C635.681 343.532 641.463 343.826 647.203 342.776Z" fill="#00163D"/>
<path d="M648.127 249.592C643.983 243.978 639.167 238.952 633.805 234.626C631.131 232.47 628.331 230.468 625.405 228.69C623.949 227.78 622.465 226.94 620.939 226.142C620.183 225.736 619.413 225.372 618.643 224.994C617.859 224.602 617.145 224.28 616.389 224.014C614.919 223.51 613.309 223.244 612.217 223.678C611.685 223.888 611.251 224.238 610.985 224.728C610.733 225.19 610.649 225.764 610.719 226.422C610.887 227.738 611.657 229.18 612.609 230.37C613.645 231.616 614.835 232.82 616.095 233.954C618.629 236.208 621.429 238.28 624.089 240.646C626.763 242.97 629.297 245.7 630.921 249.046L630.879 248.976L631.159 249.536L631.187 249.592L631.201 249.634C632.685 253.722 634.197 257.88 635.289 262.15C636.353 266.42 637.235 270.732 637.669 275.086C636.633 270.83 635.513 266.63 634.043 262.528C633.315 260.484 632.573 258.44 631.747 256.438L629.227 250.39L629.269 250.488L629.045 250.096L629.003 250.026C627.407 247.156 625.055 244.748 622.437 242.578C619.819 240.394 616.963 238.378 614.289 236.012C612.945 234.822 611.657 233.562 610.467 232.148C609.263 230.636 608.269 228.914 607.989 226.758C607.863 225.694 608.017 224.462 608.619 223.398C609.193 222.362 610.201 221.55 611.293 221.144C612.385 220.724 613.491 220.724 614.485 220.836C615.493 220.948 616.431 221.2 617.313 221.536C618.195 221.858 619.049 222.292 619.819 222.698C620.603 223.104 621.387 223.51 622.157 223.958C623.697 224.826 625.223 225.736 626.693 226.716C629.633 228.69 632.419 230.86 635.037 233.24C640.217 238 644.683 243.53 648.127 249.592Z" fill="#00163D"/>
<path d="M609.991 224.686C606.533 222.922 603.033 221.256 599.393 219.982C597.601 219.338 595.739 218.68 593.947 218.232C592.169 217.784 590.405 217.798 589.453 218.848C588.501 219.842 588.361 221.676 588.753 223.272C589.145 224.84 590.125 226.464 591.259 227.808C593.569 230.594 596.761 232.652 600.023 234.766C601.647 235.844 603.285 236.964 604.853 238.266C606.421 239.568 607.835 241.066 609.067 242.648C611.531 245.826 613.491 249.2 615.479 252.532C617.467 255.878 619.385 259.28 621.065 262.822C622.675 266.378 624.159 270.032 625.041 273.826C622.157 266.588 617.901 260.148 613.631 253.694C611.433 250.502 609.431 247.17 607.009 244.314C605.805 242.872 604.545 241.528 603.103 240.38C601.675 239.204 600.093 238.154 598.483 237.104C595.291 234.962 591.833 232.764 589.215 229.488C587.941 227.822 586.849 226.03 586.359 223.804C586.149 222.726 586.093 221.592 586.303 220.458C586.513 219.338 587.003 218.162 587.941 217.294C588.879 216.426 590.097 216.006 591.259 215.964C592.407 215.922 593.471 216.16 594.437 216.468C596.369 217.126 598.119 217.896 599.911 218.722C603.453 220.444 606.855 222.376 609.991 224.686Z" fill="#00163D"/>
<path d="M647.218 414.148C649.052 418.95 650.592 423.836 652.006 428.736L656.15 443.422C657.522 448.308 659.006 453.138 660.672 457.926C662.324 462.714 664.228 467.404 666.314 472.094C663.234 467.992 660.7 463.442 658.642 458.724C656.528 454.02 654.904 449.12 653.462 444.192C652.076 439.25 650.9 434.266 649.892 429.254C648.87 424.242 647.918 419.23 647.218 414.148Z" fill="#00163D"/>
<path d="M649.933 282.016C649.065 278.852 648.211 275.688 647.385 272.51L646.139 267.764C645.719 266.21 645.159 264.712 644.109 263.704C643.073 262.682 641.603 262.108 640.077 261.52C638.537 260.946 636.913 260.162 635.555 259.07C634.169 257.978 633.077 256.732 631.943 255.5C631.369 254.842 630.823 254.114 630.417 253.218C630.011 252.336 629.773 251.258 629.997 250.166C630.151 249.522 630.291 249.256 630.459 248.794C630.641 248.374 630.837 247.954 631.103 247.534C631.607 246.722 632.363 245.882 633.469 245.462C635.555 244.748 637.501 245.294 639.069 245.77C642.163 246.638 645.425 247.562 648.533 248.766C651.655 249.998 654.721 251.524 657.479 253.596C660.237 255.64 662.631 258.3 664.353 261.268C667.811 267.246 669.239 273.854 670.793 280.196C672.249 286.608 673.691 293.02 674.601 299.586C675.497 306.124 675.819 312.872 674.629 319.438C673.411 325.934 670.891 332.374 666.439 337.246C670.387 331.982 672.529 325.64 673.285 319.228C674.125 312.802 673.523 306.306 672.459 299.908C671.325 293.524 669.827 287.14 668.231 280.812C666.593 274.498 665.151 268.086 661.945 262.682C660.377 259.98 658.319 257.642 655.827 255.766C653.349 253.876 650.507 252.434 647.553 251.23C644.571 249.998 641.533 249.088 638.341 248.108C637.571 247.856 636.857 247.646 636.171 247.548C635.835 247.506 635.499 247.492 635.177 247.506C634.841 247.534 634.505 247.576 634.309 247.646C633.847 247.8 633.413 248.192 633.035 248.752C632.853 249.032 632.685 249.34 632.531 249.662C632.391 249.956 632.195 250.446 632.167 250.6C631.887 251.65 632.545 252.994 633.525 254.17C634.547 255.388 635.611 256.634 636.745 257.642C637.907 258.664 639.223 259.392 640.721 260.036C642.191 260.694 643.871 261.366 645.117 262.752C646.377 264.138 646.853 265.888 647.189 267.498L648.141 272.328C648.743 275.576 649.345 278.796 649.933 282.016Z" fill="#00163D"/>
</g>
<mask id="mask7_1_27" style="mask-type:luminance" maskUnits="userSpaceOnUse" x="-26" y="0" width="1050" height="700">
<path d="M1024 0H-26V700H1024V0Z" fill="white"/>
</mask>
<g mask="url(#mask7_1_27)">
<path opacity="0.53" d="M428.356 329.462H217.46C202.424 329.462 190.244 317.282 190.244 302.246V97.8039C190.244 82.7679 202.424 70.5879 217.46 70.5879H428.356C443.392 70.5879 455.572 82.7679 455.572 97.8039V302.246C455.572 317.282 443.378 329.462 428.356 329.462Z" fill="url(#paint21_linear_1_27)"/>
</g>
<mask id="mask8_1_27" style="mask-type:luminance" maskUnits="userSpaceOnUse" x="-26" y="0" width="1050" height="700">
<path d="M1024 0H-26V700H1024V0Z" fill="white"/>
</mask>
<g mask="url(#mask8_1_27)">
<path opacity="0.53" d="M734.214 543.578H523.318C508.282 543.578 496.102 531.398 496.102 516.362V311.92C496.102 296.884 508.282 284.704 523.318 284.704H734.214C749.25 284.704 761.43 296.884 761.43 311.92V516.362C761.43 531.398 749.25 543.578 734.214 543.578Z" fill="url(#paint22_linear_1_27)"/>
</g>
<mask id="mask9_1_27" style="mask-type:luminance" maskUnits="userSpaceOnUse" x="-26" y="0" width="1050" height="700">
<path d="M1024 0H-26V700H1024V0Z" fill="white"/>
</mask>
<g mask="url(#mask9_1_27)">
<path opacity="0.53" d="M125.704 280.714H107.504C104.018 280.714 101.204 277.886 101.204 274.414V256.956C101.204 253.47 104.032 250.656 107.504 250.656H125.704C129.19 250.656 132.004 253.484 132.004 256.956V274.414C132.004 277.886 129.19 280.714 125.704 280.714Z" fill="url(#paint23_linear_1_27)"/>
<path opacity="0.53" d="M159.332 335.301H129.442C126.474 335.301 124.08 332.893 124.08 329.939V301.043C124.08 298.075 126.488 295.681 129.442 295.681H159.332C162.3 295.681 164.694 298.089 164.694 301.043V329.939C164.694 332.893 162.3 335.301 159.332 335.301Z" fill="url(#paint24_linear_1_27)"/>
<path opacity="0.53" d="M155.048 212.212H129.708C122.47 212.212 116.604 206.346 116.604 199.108V175.014C116.604 167.776 122.47 161.91 129.708 161.91H155.062C162.3 161.91 168.166 167.776 168.166 175.014V199.108C168.152 206.346 162.286 212.212 155.048 212.212Z" stroke="url(#paint25_linear_1_27)" stroke-width="3" stroke-miterlimit="10"/>
<path opacity="0.53" d="M218.496 281.05H157.372C150.204 281.05 144.38 275.24 144.38 268.058V209.048C144.38 201.88 150.19 196.056 157.372 196.056H218.496C225.664 196.056 231.488 201.866 231.488 209.048V268.058C231.474 275.24 225.664 281.05 218.496 281.05Z" fill="url(#paint26_linear_1_27)"/>
</g>
<mask id="mask10_1_27" style="mask-type:luminance" maskUnits="userSpaceOnUse" x="-26" y="0" width="1050" height="700">
<path d="M1024 0H-26V700H1024V0Z" fill="white"/>
</mask>
<g mask="url(#mask10_1_27)">
<path d="M322.908 246.974C351.996 246.974 375.576 223.393 375.576 194.306C375.576 165.218 351.996 141.638 322.908 141.638C293.82 141.638 270.24 165.218 270.24 194.306C270.24 223.393 293.82 246.974 322.908 246.974Z" fill="url(#paint27_radial_1_27)"/>
<path d="M385.046 209.917C393.66 175.593 372.818 140.785 338.494 132.171C304.17 123.557 269.362 144.4 260.748 178.724C252.134 213.048 272.977 247.856 307.301 256.47C341.625 265.083 376.433 244.241 385.046 209.917Z" stroke="#C2FEFF" stroke-width="2" stroke-miterlimit="10" stroke-dasharray="100 100"/>
<path d="M340.087 240.346C365.516 230.845 378.427 202.528 368.926 177.1C359.424 151.671 331.108 138.759 305.679 148.261C280.251 157.762 267.339 186.079 276.841 211.507C286.342 236.936 314.658 249.848 340.087 240.346Z" stroke="url(#paint28_linear_1_27)" stroke-width="5" stroke-miterlimit="10" stroke-dasharray="57 57"/>
<path d="M322.908 229.768C342.493 229.768 358.37 213.891 358.37 194.306C358.37 174.721 342.493 158.844 322.908 158.844C303.323 158.844 287.446 174.721 287.446 194.306C287.446 213.891 303.323 229.768 322.908 229.768Z" fill="url(#paint29_linear_1_27)"/>
<path d="M322.908 220.808C337.545 220.808 349.41 208.942 349.41 194.306C349.41 179.669 337.545 167.804 322.908 167.804C308.272 167.804 296.406 179.669 296.406 194.306C296.406 208.942 308.272 220.808 322.908 220.808Z" stroke="#3EF1FF" stroke-miterlimit="10"/>
</g>
<mask id="mask11_1_27" style="mask-type:luminance" maskUnits="userSpaceOnUse" x="-26" y="0" width="1050" height="700">
<path d="M1024 0H-26V700H1024V0Z" fill="white"/>
</mask>
<g mask="url(#mask11_1_27)">
<path d="M206.862 359.114V512.246" stroke="url(#paint30_linear_1_27)" stroke-width="5" stroke-miterlimit="10" stroke-linecap="round" stroke-linejoin="round"/>
<path d="M257.011 284.578V437.724" stroke="url(#paint31_linear_1_27)" stroke-width="5" stroke-miterlimit="10" stroke-linecap="round" stroke-linejoin="round"/>
<path d="M297.036 383.026V536.172" stroke="url(#paint32_linear_1_27)" stroke-width="5" stroke-miterlimit="10" stroke-linecap="round" stroke-linejoin="round"/>
</g>
<mask id="mask12_1_27" style="mask-type:luminance" maskUnits="userSpaceOnUse" x="-26" y="0" width="1050" height="700">
<path d="M1024 0H-26V700H1024V0Z" fill="white"/>
</mask>
<g mask="url(#mask12_1_27)">
<path d="M697.324 166.32V319.466" stroke="url(#paint33_linear_1_27)" stroke-width="5" stroke-miterlimit="10" stroke-linecap="round" stroke-linejoin="round"/>
</g>
</g>
<defs>
<radialGradient id="paint0_radial_1_27" cx="0" cy="0" r="1" gradientUnits="userSpaceOnUse" gradientTransform="translate(466.164 241.637) scale(451.565 451.565)">
<stop stop-color="#0051B2"/>
<stop offset="0.1736" stop-color="#003B91"/>
<stop offset="0.3481" stop-color="#002977"/>
<stop offset="0.4515" stop-color="#00226D"/>
<stop offset="0.6023" stop-color="#001B54"/>
<stop offset="0.8634" stop-color="#00102D"/>
<stop offset="1" stop-color="#000C1E"/>
</radialGradient>
<linearGradient id="paint1_linear_1_27" x1="1314.79" y1="460.127" x2="515.262" y2="728.345" gradientUnits="userSpaceOnUse">
<stop stop-color="#00C8E2"/>
<stop offset="0.1247" stop-color="#00C1DF" stop-opacity="0.8753"/>
<stop offset="0.3074" stop-color="#00ADD7" stop-opacity="0.6926"/>
<stop offset="0.5257" stop-color="#008DC9" stop-opacity="0.4743"/>
<stop offset="0.7694" stop-color="#0061B6" stop-opacity="0.2306"/>
<stop offset="1" stop-color="#0030A2" stop-opacity="0"/>
</linearGradient>
<linearGradient id="paint2_linear_1_27" x1="1146.42" y1="-117.042" x2="48.0933" y2="120.284" gradientUnits="userSpaceOnUse">
<stop stop-color="#00C8E2"/>
<stop offset="0.1247" stop-color="#00C1DF" stop-opacity="0.8753"/>
<stop offset="0.3074" stop-color="#00ADD7" stop-opacity="0.6926"/>
<stop offset="0.5257" stop-color="#008DC9" stop-opacity="0.4743"/>
<stop offset="0.7694" stop-color="#0061B6" stop-opacity="0.2306"/>
<stop offset="1" stop-color="#0030A2" stop-opacity="0"/>
</linearGradient>
<radialGradient id="paint3_radial_1_27" cx="0" cy="0" r="1" gradientUnits="userSpaceOnUse" gradientTransform="translate(625.044 456.544) scale(263.298 255.503)">
<stop stop-color="#0051B2"/>
<stop offset="0.3776" stop-color="#003575" stop-opacity="0.6224"/>
<stop offset="0.7996" stop-color="#001737" stop-opacity="0.2004"/>
<stop offset="1" stop-color="#000C1E" stop-opacity="0"/>
</radialGradient>
<radialGradient id="paint4_radial_1_27" cx="0" cy="0" r="1" gradientUnits="userSpaceOnUse" gradientTransform="translate(455.57 216.948) scale(136.778 132.729)">
<stop stop-color="#C2FEFF"/>
<stop offset="0.0915" stop-color="#B8F2F4" stop-opacity="0.9085"/>
<stop offset="0.2568" stop-color="#9FD2D6" stop-opacity="0.7432"/>
<stop offset="0.4772" stop-color="#759FA6" stop-opacity="0.5228"/>
<stop offset="0.7407" stop-color="#3D5865" stop-opacity="0.2593"/>
<stop offset="1" stop-color="#000C1E" stop-opacity="0"/>
</radialGradient>
<linearGradient id="paint5_linear_1_27" x1="436.738" y1="180.006" x2="558.61" y2="296.315" gradientUnits="userSpaceOnUse">
<stop stop-color="#C2FEFF"/>
<stop offset="0.1477" stop-color="#89F8FF"/>
<stop offset="0.274" stop-color="#60F4FF"/>
<stop offset="0.3732" stop-color="#47F2FF"/>
<stop offset="0.4332" stop-color="#3EF1FF"/>
<stop offset="0.534" stop-color="#31D0EF"/>
<stop offset="0.7567" stop-color="#178CCE"/>
<stop offset="0.9179" stop-color="#0661BA"/>
<stop offset="1" stop-color="#0051B2"/>
</linearGradient>
<linearGradient id="paint6_linear_1_27" x1="465.089" y1="291.44" x2="520.743" y2="291.44" gradientUnits="userSpaceOnUse">
<stop stop-color="#0051B2"/>
<stop offset="0.122" stop-color="#00479D"/>
<stop offset="0.5416" stop-color="#002759"/>
<stop offset="0.8453" stop-color="#00142E"/>
<stop offset="1" stop-color="#000C1E"/>
</linearGradient>
<linearGradient id="paint7_linear_1_27" x1="484.466" y1="234.492" x2="436.915" y2="246.523" gradientUnits="userSpaceOnUse">
<stop stop-color="#0071B4"/>
<stop offset="0.1169" stop-color="#2786BF"/>
<stop offset="0.3638" stop-color="#73B1D6"/>
<stop offset="0.5844" stop-color="#AFD2E7"/>
<stop offset="0.7704" stop-color="#DAEBF4"/>
<stop offset="0.9149" stop-color="#F5F9FC"/>
<stop offset="1" stop-color="white"/>
</linearGradient>
<linearGradient id="paint8_linear_1_27" x1="444.766" y1="254.238" x2="483.409" y2="241.692" gradientUnits="userSpaceOnUse">
<stop stop-color="#00226D"/>
<stop offset="0.2242" stop-color="#001C59"/>
<stop offset="0.7373" stop-color="#00112E"/>
<stop offset="1" stop-color="#000C1E"/>
</linearGradient>
<linearGradient id="paint9_linear_1_27" x1="471.849" y1="263.04" x2="465.962" y2="251.719" gradientUnits="userSpaceOnUse">
<stop stop-color="#0071B4"/>
<stop offset="0.2688" stop-color="#4867BF"/>
<stop offset="0.5222" stop-color="#845FC9"/>
<stop offset="0.7361" stop-color="#AF59D0"/>
<stop offset="0.9021" stop-color="#CA55D4"/>
<stop offset="1" stop-color="#D454D6"/>
</linearGradient>
<linearGradient id="paint10_linear_1_27" x1="403.425" y1="651.503" x2="601.221" y2="651.503" gradientUnits="userSpaceOnUse">
<stop stop-color="#00C8E2"/>
<stop offset="0.2765" stop-color="#009CD0"/>
<stop offset="0.5744" stop-color="#0073C0"/>
<stop offset="0.8102" stop-color="#005AB6"/>
<stop offset="0.9527" stop-color="#0051B2"/>
</linearGradient>
<linearGradient id="paint11_linear_1_27" x1="251.077" y1="332.555" x2="407.76" y2="318.068" gradientUnits="userSpaceOnUse">
<stop stop-color="#C2FEFF"/>
<stop offset="0.1477" stop-color="#89F8FF"/>
<stop offset="0.274" stop-color="#60F4FF"/>
<stop offset="0.3732" stop-color="#47F2FF"/>
<stop offset="0.4332" stop-color="#3EF1FF"/>
<stop offset="0.534" stop-color="#31D0EF"/>
<stop offset="0.7567" stop-color="#178CCE"/>
<stop offset="0.9179" stop-color="#0661BA"/>
<stop offset="1" stop-color="#0051B2"/>
</linearGradient>
<linearGradient id="paint12_linear_1_27" x1="351.396" y1="379.926" x2="392.465" y2="422.09" gradientUnits="userSpaceOnUse">
<stop stop-color="#0051B2" stop-opacity="0"/>
<stop offset="0.122" stop-color="#00479D" stop-opacity="0.122"/>
<stop offset="0.5416" stop-color="#002759" stop-opacity="0.5416"/>
<stop offset="0.8453" stop-color="#00142E" stop-opacity="0.8453"/>
<stop offset="1" stop-color="#000C1E"/>
</linearGradient>
<linearGradient id="paint13_linear_1_27" x1="371.535" y1="430.109" x2="650.134" y2="512.716" gradientUnits="userSpaceOnUse">
<stop stop-color="#00C8E2"/>
<stop offset="0.0911" stop-color="#009CD0"/>
<stop offset="0.1893" stop-color="#0073C0"/>
<stop offset="0.267" stop-color="#005AB6"/>
<stop offset="0.3139" stop-color="#0051B2"/>
<stop offset="0.6166" stop-color="#003478"/>
<stop offset="0.8706" stop-color="#001E4D"/>
<stop offset="1" stop-color="#00163D"/>
</linearGradient>
<linearGradient id="paint14_linear_1_27" x1="603.717" y1="627.09" x2="590.832" y2="417.886" gradientUnits="userSpaceOnUse">
<stop stop-color="#0051B2" stop-opacity="0"/>
<stop offset="0.122" stop-color="#00479D" stop-opacity="0.122"/>
<stop offset="0.5416" stop-color="#002759" stop-opacity="0.5416"/>
<stop offset="0.8453" stop-color="#00142E" stop-opacity="0.8453"/>
<stop offset="1" stop-color="#000C1E"/>
</linearGradient>
<linearGradient id="paint15_linear_1_27" x1="474.891" y1="92.7046" x2="529.437" y2="279.914" gradientUnits="userSpaceOnUse">
<stop stop-color="#00C8E2"/>
<stop offset="0.0911" stop-color="#009CD0"/>
<stop offset="0.1893" stop-color="#0073C0"/>
<stop offset="0.267" stop-color="#005AB6"/>
<stop offset="0.3139" stop-color="#0051B2"/>
<stop offset="0.3976" stop-color="#00479D"/>
<stop offset="0.6855" stop-color="#002759"/>
<stop offset="0.8939" stop-color="#00142E"/>
<stop offset="1" stop-color="#000C1E"/>
</linearGradient>
<linearGradient id="paint16_linear_1_27" x1="479.122" y1="163.261" x2="473.478" y2="236.635" gradientUnits="userSpaceOnUse">
<stop stop-color="#00C8E2"/>
<stop offset="0.0911" stop-color="#009CD0"/>
<stop offset="0.1893" stop-color="#0073C0"/>
<stop offset="0.267" stop-color="#005AB6"/>
<stop offset="0.3139" stop-color="#0051B2"/>
<stop offset="0.6166" stop-color="#003478"/>
<stop offset="0.8706" stop-color="#001E4D"/>
<stop offset="1" stop-color="#00163D"/>
</linearGradient>
<linearGradient id="paint17_linear_1_27" x1="588.461" y1="212.151" x2="536.987" y2="193.277" gradientUnits="userSpaceOnUse">
<stop stop-color="#A951D1"/>
<stop offset="0.0576" stop-color="#A153D0"/>
<stop offset="0.1495" stop-color="#8957CC"/>
<stop offset="0.2641" stop-color="#645EC5"/>
<stop offset="0.3957" stop-color="#3068BC"/>
<stop offset="0.5028" stop-color="#0071B4"/>
<stop offset="0.545" stop-color="#006BB2"/>
<stop offset="0.846" stop-color="#0040A6"/>
<stop offset="1" stop-color="#0030A2"/>
</linearGradient>
<linearGradient id="paint18_linear_1_27" x1="407.99" y1="185.546" x2="530.68" y2="185.546" gradientUnits="userSpaceOnUse">
<stop stop-color="#D454D6"/>
<stop offset="0.3666" stop-color="#A951D1"/>
<stop offset="0.4401" stop-color="#9F53CF"/>
<stop offset="0.5649" stop-color="#8458CB"/>
<stop offset="0.7257" stop-color="#5960C3"/>
<stop offset="0.9142" stop-color="#1E6BB9"/>
<stop offset="1" stop-color="#0071B4"/>
</linearGradient>
<linearGradient id="paint19_linear_1_27" x1="459.598" y1="139.544" x2="499.866" y2="282.834" gradientUnits="userSpaceOnUse">
<stop stop-color="white"/>
<stop offset="0.2375" stop-color="#BCBFC4" stop-opacity="0.7625"/>
<stop offset="0.6141" stop-color="#58606C" stop-opacity="0.3859"/>
<stop offset="0.8765" stop-color="#192334" stop-opacity="0.1235"/>
<stop offset="1" stop-color="#000C1E" stop-opacity="0"/>
</linearGradient>
<linearGradient id="paint20_linear_1_27" x1="568.651" y1="367.87" x2="715.289" y2="353.212" gradientUnits="userSpaceOnUse">
<stop stop-color="#C2FEFF"/>
<stop offset="0.1477" stop-color="#89F8FF"/>
<stop offset="0.274" stop-color="#60F4FF"/>
<stop offset="0.3732" stop-color="#47F2FF"/>
<stop offset="0.4332" stop-color="#3EF1FF"/>
<stop offset="0.534" stop-color="#31D0EF"/>
<stop offset="0.7567" stop-color="#178CCE"/>
<stop offset="0.9179" stop-color="#0661BA"/>
<stop offset="1" stop-color="#0051B2"/>
</linearGradient>
<linearGradient id="paint21_linear_1_27" x1="290.829" y1="45.6029" x2="357.382" y2="365.96" gradientUnits="userSpaceOnUse">
<stop stop-color="#00C8E2"/>
<stop offset="0.1247" stop-color="#00C1DF" stop-opacity="0.8753"/>
<stop offset="0.3074" stop-color="#00ADD7" stop-opacity="0.6926"/>
<stop offset="0.5257" stop-color="#008DC9" stop-opacity="0.4743"/>
<stop offset="0.7694" stop-color="#0061B6" stop-opacity="0.2306"/>
<stop offset="1" stop-color="#0030A2" stop-opacity="0"/>
</linearGradient>
<linearGradient id="paint22_linear_1_27" x1="596.689" y1="259.722" x2="659.173" y2="560.49" gradientUnits="userSpaceOnUse">
<stop stop-color="#00C8E2"/>
<stop offset="0.1247" stop-color="#00C1DF" stop-opacity="0.8753"/>
<stop offset="0.3074" stop-color="#00ADD7" stop-opacity="0.6926"/>
<stop offset="0.5257" stop-color="#008DC9" stop-opacity="0.4743"/>
<stop offset="0.7694" stop-color="#0061B6" stop-opacity="0.2306"/>
<stop offset="1" stop-color="#0030A2" stop-opacity="0"/>
</linearGradient>
<linearGradient id="paint23_linear_1_27" x1="112.354" y1="245.63" x2="121.243" y2="287.575" gradientUnits="userSpaceOnUse">
<stop stop-color="#00C8E2"/>
<stop offset="0.1247" stop-color="#00C1DF" stop-opacity="0.8753"/>
<stop offset="0.3074" stop-color="#00ADD7" stop-opacity="0.6926"/>
<stop offset="0.5257" stop-color="#008DC9" stop-opacity="0.4743"/>
<stop offset="0.7694" stop-color="#0061B6" stop-opacity="0.2306"/>
<stop offset="1" stop-color="#0030A2" stop-opacity="0"/>
</linearGradient>
<linearGradient id="paint24_linear_1_27" x1="138.649" y1="288.403" x2="150.655" y2="345.059" gradientUnits="userSpaceOnUse">
<stop stop-color="#00C8E2"/>
<stop offset="0.1247" stop-color="#00C1DF" stop-opacity="0.8753"/>
<stop offset="0.3074" stop-color="#00ADD7" stop-opacity="0.6926"/>
<stop offset="0.5257" stop-color="#008DC9" stop-opacity="0.4743"/>
<stop offset="0.7694" stop-color="#0061B6" stop-opacity="0.2306"/>
<stop offset="1" stop-color="#0030A2" stop-opacity="0"/>
</linearGradient>
<linearGradient id="paint25_linear_1_27" x1="136.362" y1="158.104" x2="148.395" y2="216.025" gradientUnits="userSpaceOnUse">
<stop stop-color="#00C8E2"/>
<stop offset="0.1247" stop-color="#00C1DF" stop-opacity="0.8753"/>
<stop offset="0.3074" stop-color="#00ADD7" stop-opacity="0.6926"/>
<stop offset="0.5257" stop-color="#008DC9" stop-opacity="0.4743"/>
<stop offset="0.7694" stop-color="#0061B6" stop-opacity="0.2306"/>
<stop offset="1" stop-color="#0030A2" stop-opacity="0"/>
</linearGradient>
<linearGradient id="paint26_linear_1_27" x1="178.152" y1="191.483" x2="197.715" y2="285.653" gradientUnits="userSpaceOnUse">
<stop stop-color="#00C8E2"/>
<stop offset="0.1247" stop-color="#00C1DF" stop-opacity="0.8753"/>
<stop offset="0.3074" stop-color="#00ADD7" stop-opacity="0.6926"/>
<stop offset="0.5257" stop-color="#008DC9" stop-opacity="0.4743"/>
<stop offset="0.7694" stop-color="#0061B6" stop-opacity="0.2306"/>
<stop offset="1" stop-color="#0030A2" stop-opacity="0"/>
</linearGradient>
<radialGradient id="paint27_radial_1_27" cx="0" cy="0" r="1" gradientUnits="userSpaceOnUse" gradientTransform="translate(322.91 194.309) rotate(180) scale(52.6666 52.6666)">
<stop stop-color="#C2FEFF"/>
<stop offset="0.1279" stop-color="#A1D5D9" stop-opacity="0.8721"/>
<stop offset="0.3672" stop-color="#698F97" stop-opacity="0.6328"/>
<stop offset="0.5827" stop-color="#3C5663" stop-opacity="0.4173"/>
<stop offset="0.7667" stop-color="#1B2E3E" stop-opacity="0.2333"/>
<stop offset="0.9118" stop-color="#071526" stop-opacity="0.0882"/>
<stop offset="1" stop-color="#000C1E" stop-opacity="0"/>
</radialGradient>
<linearGradient id="paint28_linear_1_27" x1="341.314" y1="243.625" x2="304.458" y2="144.988" gradientUnits="userSpaceOnUse">
<stop stop-color="#000C1E" stop-opacity="0"/>
<stop offset="0.0337" stop-color="#0E1A2B" stop-opacity="0.0337"/>
<stop offset="0.1907" stop-color="#4D5662" stop-opacity="0.1907"/>
<stop offset="0.3461" stop-color="#838992" stop-opacity="0.3461"/>
<stop offset="0.4961" stop-color="#B0B4B9" stop-opacity="0.4961"/>
<stop offset="0.6395" stop-color="#D2D4D8" stop-opacity="0.6395"/>
<stop offset="0.7746" stop-color="#EBECED" stop-opacity="0.7746"/>
<stop offset="0.8983" stop-color="#FAFAFA" stop-opacity="0.8983"/>
<stop offset="1" stop-color="white"/>
</linearGradient>
<linearGradient id="paint29_linear_1_27" x1="346.889" y1="248.117" x2="313.199" y2="172.52" gradientUnits="userSpaceOnUse">
<stop stop-color="#C2FEFF"/>
<stop offset="0.201" stop-color="#97C8CD" stop-opacity="0.799"/>
<stop offset="0.5957" stop-color="#476470" stop-opacity="0.4043"/>
<stop offset="0.8706" stop-color="#142535" stop-opacity="0.1294"/>
<stop offset="1" stop-color="#000C1E" stop-opacity="0"/>
</linearGradient>
<linearGradient id="paint30_linear_1_27" x1="-nan" y1="-nan" x2="-nan" y2="-nan" gradientUnits="userSpaceOnUse">
<stop stop-color="white"/>
<stop offset="0.1809" stop-color="#FCFDFE" stop-opacity="0.8191"/>
<stop offset="0.3135" stop-color="#F3F5FA" stop-opacity="0.6865"/>
<stop offset="0.4307" stop-color="#E3E8F5" stop-opacity="0.5693"/>
<stop offset="0.539" stop-color="#CCD6EC" stop-opacity="0.461"/>
<stop offset="0.6412" stop-color="#AFBEE2" stop-opacity="0.3588"/>
<stop offset="0.7388" stop-color="#8BA1D5" stop-opacity="0.2612"/>
<stop offset="0.8328" stop-color="#617FC5" stop-opacity="0.1672"/>
<stop offset="0.9217" stop-color="#3158B4" stop-opacity="0.0783"/>
<stop offset="1" stop-color="#0030A2" stop-opacity="0"/>
</linearGradient>
<linearGradient id="paint31_linear_1_27" x1="-nan" y1="-nan" x2="-nan" y2="-nan" gradientUnits="userSpaceOnUse">
<stop stop-color="white"/>
<stop offset="0.1809" stop-color="#FCFDFE" stop-opacity="0.8191"/>
<stop offset="0.3135" stop-color="#F3F5FA" stop-opacity="0.6865"/>
<stop offset="0.4307" stop-color="#E3E8F5" stop-opacity="0.5693"/>
<stop offset="0.539" stop-color="#CCD6EC" stop-opacity="0.461"/>
<stop offset="0.6412" stop-color="#AFBEE2" stop-opacity="0.3588"/>
<stop offset="0.7388" stop-color="#8BA1D5" stop-opacity="0.2612"/>
<stop offset="0.8328" stop-color="#617FC5" stop-opacity="0.1672"/>
<stop offset="0.9217" stop-color="#3158B4" stop-opacity="0.0783"/>
<stop offset="1" stop-color="#0030A2" stop-opacity="0"/>
</linearGradient>
<linearGradient id="paint32_linear_1_27" x1="-nan" y1="-nan" x2="-nan" y2="-nan" gradientUnits="userSpaceOnUse">
<stop stop-color="white"/>
<stop offset="0.1809" stop-color="#FCFDFE" stop-opacity="0.8191"/>
<stop offset="0.3135" stop-color="#F3F5FA" stop-opacity="0.6865"/>
<stop offset="0.4307" stop-color="#E3E8F5" stop-opacity="0.5693"/>
<stop offset="0.539" stop-color="#CCD6EC" stop-opacity="0.461"/>
<stop offset="0.6412" stop-color="#AFBEE2" stop-opacity="0.3588"/>
<stop offset="0.7388" stop-color="#8BA1D5" stop-opacity="0.2612"/>
<stop offset="0.8328" stop-color="#617FC5" stop-opacity="0.1672"/>
<stop offset="0.9217" stop-color="#3158B4" stop-opacity="0.0783"/>
<stop offset="1" stop-color="#0030A2" stop-opacity="0"/>
</linearGradient>
<linearGradient id="paint33_linear_1_27" x1="-nan" y1="-nan" x2="-nan" y2="-nan" gradientUnits="userSpaceOnUse">
<stop stop-color="white"/>
<stop offset="0.1809" stop-color="#FCFDFE" stop-opacity="0.8191"/>
<stop offset="0.3135" stop-color="#F3F5FA" stop-opacity="0.6865"/>
<stop offset="0.4307" stop-color="#E3E8F5" stop-opacity="0.5693"/>
<stop offset="0.539" stop-color="#CCD6EC" stop-opacity="0.461"/>
<stop offset="0.6412" stop-color="#AFBEE2" stop-opacity="0.3588"/>
<stop offset="0.7388" stop-color="#8BA1D5" stop-opacity="0.2612"/>
<stop offset="0.8328" stop-color="#617FC5" stop-opacity="0.1672"/>
<stop offset="0.9217" stop-color="#3158B4" stop-opacity="0.0783"/>
<stop offset="1" stop-color="#0030A2" stop-opacity="0"/>
</linearGradient>
</defs>
</svg>
