<svg width="100" height="108" viewBox="0 0 100 108" fill="none" xmlns="http://www.w3.org/2000/svg">
<path fill-rule="evenodd" clip-rule="evenodd" d="M5.80636 54.2265L5.77174 54.2671L5.77456 54.2681C2.76121 57.7996 -0.354662 61.4526 0.0327724 65.6649C0.254381 67.8261 1.36189 69.7984 3.09242 71.1118C3.26225 71.2503 3.44385 71.3748 3.63404 71.4836L5.76537 72.7069C5.57752 73.2861 5.35601 73.8536 5.10164 74.4069H5.10086C4.58585 75.2843 3.40077 78.0769 6.50189 81.2101C6.25769 82.3011 6.31874 83.4383 6.67956 84.4973C7.04039 85.5555 7.68687 86.4931 8.54706 87.2077C9.87843 88.2715 9.82913 88.4014 9.50665 89.2491C8.26059 92.6694 8.911 96.4929 11.2168 99.3091C13.5235 102.125 17.1442 103.516 20.7422 102.968V102.969C22.9916 102.639 27.9719 101.162 35.5836 98.5695L35.5961 103.407C35.5992 104.493 36.0329 105.534 36.8022 106.302C37.5716 107.069 38.6134 107.499 39.6998 107.499H39.7115C40.7995 107.496 41.842 107.061 42.6099 106.289C43.3769 105.518 43.8066 104.473 43.8035 103.385L43.7753 92.8019C43.7721 91.4721 43.1249 90.2268 42.04 89.4598C40.9544 88.6919 39.5644 88.4978 38.3106 88.9385C28.663 92.3305 21.6524 94.5394 19.558 94.847C18.8191 94.9996 18.0568 94.7241 17.5864 94.1332C17.1246 93.5853 16.9728 92.841 17.1825 92.1553C17.9269 90.4349 18.1131 88.5235 17.7147 86.692C17.3156 84.8599 16.3521 83.1997 14.9597 81.9443C15.5107 81.0144 15.6735 79.9046 15.4121 78.8558C15.1499 77.807 14.4846 76.9037 13.561 76.3425C13.4624 76.2823 13.3575 76.2134 13.2518 76.1406C13.8287 74.5893 14.3546 72.8604 14.6207 71.9517C14.8806 71.0673 14.8344 70.121 14.4908 69.2663C14.1464 68.4109 13.525 67.6963 12.7258 67.2376H12.725L8.27785 64.6853C8.68932 63.4973 10.7436 61.0891 12.0157 59.5978L12.0184 59.5947C12.8316 58.6421 13.6722 57.6559 14.4572 56.6455C17.0988 53.4201 17.9535 49.0877 16.734 45.1008C16.1862 43.3836 15.949 41.5818 16.0343 39.7816C16.7396 28.7192 22.5443 10.0136 53.5034 9.0008C66.3904 8.58764 76.2217 11.7833 82.7173 18.5192C92.7263 28.8993 91.7675 44.583 91.7566 44.7395C91.7276 44.9688 91.7299 45.2005 91.762 45.4291H91.7628C91.7714 46.0654 91.6338 52.5782 83.316 63.5288C71.9209 78.5225 82.0262 103.87 82.4621 104.941C82.8715 105.949 83.6652 106.754 84.6678 107.178C85.6704 107.602 86.8007 107.609 87.8088 107.199C88.8176 106.789 89.6222 105.995 90.0449 104.993C90.4683 103.989 90.4754 102.859 90.0653 101.851V101.85C89.9244 101.5 81.3141 79.7252 89.8508 68.4927C99.6642 55.5735 100.05 47.165 99.9608 45.0314C100.095 42.4467 100.509 25.2081 88.6869 12.8862C80.5098 4.36424 68.5994 0.284016 53.2335 0.797463C36.6669 1.33906 24.2911 6.51981 16.4476 16.1955C10.0452 24.092 8.23328 33.0946 7.84037 39.256C7.69166 42.0383 8.04308 44.8255 8.87744 47.4844C9.31497 48.9222 8.97293 50.4836 7.97499 51.6068C7.31331 52.4589 6.58095 53.3179 5.80636 54.2265ZM51.8514 53.2871C51.8185 50.2605 53.3119 47.4208 55.8243 45.7333L55.8247 45.7337C58.6 43.9045 60.4668 40.9811 60.9575 37.693C61.4482 34.4058 60.5169 31.0636 58.3958 28.5043C56.2747 25.9441 53.165 24.4084 49.8432 24.2793C47.1757 24.1775 44.5537 24.99 42.4107 26.5819C40.2686 28.1739 38.7336 30.4499 38.0613 33.0328C37.8899 33.7428 38.0543 34.4919 38.5067 35.0648C38.9598 35.6369 39.6518 35.9696 40.3812 35.9657C41.5177 35.986 42.5297 35.2495 42.8592 34.1623C43.3749 32.2995 44.6633 30.7467 46.3985 29.8967C48.1345 29.0459 50.1515 28.9801 51.9391 29.7143C53.7268 30.4493 55.1138 31.9145 55.7502 33.7397C56.3865 35.5643 56.2112 37.5742 55.268 39.2617C54.7288 40.2268 53.9688 41.0509 53.0499 41.6654C51.6185 42.6227 50.381 43.8413 49.4026 45.258C48.1941 47.0168 47.4028 49.0283 47.0873 51.1384C46.7289 53.6563 46.6443 56.2056 46.8345 58.7422C47.0858 62.1335 47.9734 65.6798 50.2252 68.3223C51.2341 69.541 52.5458 70.474 54.0282 71.0281V71.0273C54.1591 71.074 54.3633 71.1479 54.6301 71.2444C55.2764 71.4782 56.2903 71.845 57.5206 72.2804L57.5128 74.4899H40.285C38.844 74.486 37.4767 73.8528 36.5421 72.7562C35.6076 71.6598 35.199 70.2094 35.4237 68.7865H35.4245C36.2486 63.3633 36.1522 56.6571 32.3899 51.7128C27.1513 44.8189 27.0144 40.6965 27.0144 40.2785V40.248C27.0316 40.0844 27.0347 39.9193 27.0214 39.7549H27.0222C27.0144 39.6561 26.3616 29.7637 32.7467 23.1124C36.877 18.8075 43.1331 16.7577 51.3631 17.023C71.065 17.668 74.7553 29.5657 75.203 36.6037C75.2586 37.748 75.1068 38.8923 74.7553 39.9825C73.9788 42.5373 74.5284 45.3112 76.2205 47.3774C76.5383 47.7867 78.0318 49.7239 79.0798 51.0834C79.3467 51.4301 79.4508 51.8755 79.3655 52.3044C79.2794 52.7333 79.0125 53.1043 78.6329 53.3211L77.3368 54.0663C76.2684 54.6752 75.7588 55.9384 76.1064 57.1179C76.2222 57.5179 76.4187 58.1628 76.6495 58.8469C76.8249 59.3611 76.7106 59.9293 76.3521 60.3363C76.0312 60.6901 75.7784 61.0994 75.6054 61.5448C75.4739 61.9307 75.4661 62.3478 75.5819 62.7384C75.715 63.2049 75.6179 63.7058 75.3221 64.0893C74.6451 64.8986 74.2067 65.8809 74.0573 66.9258C73.907 67.9697 74.0518 69.0358 74.4744 70.0024C74.6012 70.4235 74.5073 70.8806 74.224 71.2172C73.932 71.5827 73.4593 71.7525 73.0014 71.6578C70.8622 71.2289 68.7638 70.6192 66.728 69.8334C65.7561 69.5132 64.7861 69.188 63.8162 68.8628C61.9861 68.2491 60.1563 67.6356 58.3141 67.0564C56.8582 66.5985 55.2318 66.0467 54.2229 64.8319C53.2383 63.5177 52.6067 61.9727 52.3875 60.3447C52.0862 58.0028 51.9069 55.6468 51.8514 53.2871Z" fill="#9924FF"/>
</svg>
