<svg width="129" height="134" viewBox="0 0 129 134" fill="none" xmlns="http://www.w3.org/2000/svg">
<path d="M35.8385 121.702H13.3861C12.6407 121.702 12.0371 121.098 12.0371 120.353V97.9144C12.0392 97.373 12.3663 96.8843 12.8664 96.6752C13.3664 96.4661 13.9431 96.5768 14.3313 96.9568L36.7962 119.408C37.1761 119.795 37.2869 120.373 37.0778 120.873C36.8686 121.373 36.3799 121.7 35.8385 121.702ZM14.7362 119.003H32.5733L14.7351 101.166L14.7362 119.003Z" fill="white" stroke="white"/>
<path d="M62.6072 132.781H2.34898C1.60461 132.781 1.00001 132.176 1.00001 131.432V71.1312C0.997939 70.5815 1.3282 70.0856 1.83651 69.8764C2.34172 69.6683 2.92254 69.7864 3.30767 70.1736L63.6057 130.485C63.9929 130.87 64.1109 131.451 63.9028 131.956C63.6844 132.473 63.1678 132.801 62.6077 132.779L62.6072 132.781ZM3.645 130.082H59.342L3.69801 74.3847L3.645 130.082Z" fill="white" stroke="white"/>
<path d="M115.686 132.781H62.6071C62.2478 132.783 61.9031 132.642 61.6484 132.389L14.1675 84.9083C13.9097 84.6557 13.7648 84.311 13.7627 83.9496V23.0315C13.7627 22.2861 14.3673 21.6814 15.1117 21.6814H34.4738V2.33286C34.4738 1.58848 35.0784 0.983887 35.8238 0.983887H115.687C116.045 0.983887 116.389 1.12572 116.641 1.37937C116.894 1.63198 117.037 1.9757 117.037 2.33289V25.3517C117.037 26.0971 116.432 26.7017 115.687 26.7017C114.942 26.7017 114.338 26.0971 114.338 25.3517V3.68297H37.1729V23.0315C37.1729 23.3887 37.031 23.7324 36.7774 23.9851C36.5248 24.2387 36.1811 24.3805 35.8239 24.3805H16.4618V83.3984L63.1609 130.082H115.688C116.433 130.082 117.038 130.686 117.038 131.432C117.038 132.176 116.433 132.781 115.688 132.781H115.686Z" fill="white" stroke="white"/>
<path d="M35.8226 24.3952H15.1107C14.5651 24.3931 14.0744 24.0618 13.8684 23.5566C13.6613 23.0524 13.7793 22.4726 14.1665 22.0875L34.8641 1.38988C35.2493 1.00269 35.8301 0.885704 36.3353 1.09275C36.8395 1.29981 37.1687 1.7895 37.1718 2.33407V23.046C37.1718 23.4032 37.03 23.7469 36.7763 23.9995C36.5237 24.2531 36.1798 24.3952 35.8226 24.3952ZM18.377 21.6961H34.4726V5.59945L18.377 21.6961Z" fill="white" stroke="white"/>
<path d="M126.481 107.51H115.686C114.942 107.51 114.337 106.905 114.337 106.16V47.4676C114.339 47.1136 114.479 46.774 114.728 46.5234C114.981 46.2657 115.326 46.1197 115.686 46.1187H126.481C126.838 46.1187 127.182 46.2605 127.434 46.5131C127.688 46.7667 127.83 47.1094 127.83 47.4677V106.16C127.83 106.518 127.688 106.86 127.434 107.114C127.182 107.367 126.838 107.51 126.481 107.51ZM117.036 104.81H125.132L125.131 48.8166H117.036L117.036 104.81Z" fill="white" stroke="white"/>
<path d="M115.686 107.51H104.704C103.958 107.51 103.354 106.905 103.354 106.16V47.4676C103.354 46.7222 103.958 46.1187 104.704 46.1187H115.686C116.044 46.1187 116.388 46.2605 116.641 46.5131C116.893 46.7667 117.036 47.1094 117.036 47.4677V106.16C117.036 106.518 116.893 106.86 116.641 107.114C116.388 107.367 116.044 107.51 115.686 107.51ZM106.08 104.81H114.337V48.8166H106.053L106.08 104.81Z" fill="white" stroke="white"/>
<path d="M126.481 117.979H104.69C103.944 117.979 103.34 117.374 103.34 116.63V106.159C103.34 105.413 103.944 104.81 104.69 104.81H126.481C126.838 104.81 127.182 104.951 127.434 105.205C127.688 105.458 127.83 105.801 127.83 106.159V116.63C127.83 116.987 127.688 117.33 127.434 117.583C127.182 117.837 126.838 117.979 126.481 117.979ZM105.985 115.279H125.131V107.509H106.039L105.985 115.279Z" fill="white" stroke="white"/>
<path d="M126.481 48.8148H104.703C104.236 48.8158 103.804 48.5756 103.556 48.1812C103.294 47.7754 103.268 47.2608 103.489 46.8311L114.404 24.7164V24.7174C114.621 24.2619 115.074 23.9648 115.578 23.9482C116.071 23.9254 116.537 24.1739 116.792 24.5953C116.834 24.6605 116.87 24.7278 116.9 24.7982L127.694 46.8313C127.935 47.2496 127.935 47.7631 127.694 48.1813C127.435 48.5975 126.97 48.8398 126.481 48.8149L126.481 48.8148ZM106.835 46.1157H124.376L115.686 28.374L106.835 46.1157Z" fill="white" stroke="white"/>
<path d="M122.203 132.781H109.021C107.602 132.854 106.212 132.367 105.151 131.421C104.09 130.477 103.445 129.152 103.354 127.735V116.63C103.354 115.885 103.958 115.28 104.704 115.28H126.481C126.838 115.28 127.182 115.423 127.434 115.676C127.688 115.929 127.83 116.272 127.83 116.63V127.735C127.739 129.145 127.099 130.463 126.047 131.407C124.995 132.35 123.615 132.844 122.203 132.781ZM106.012 117.939V127.694C106.195 129.155 107.516 130.2 108.98 130.041H122.163C123.627 130.2 124.949 129.155 125.131 127.694V117.979L106.012 117.939Z" fill="white" stroke="white"/>
<path d="M74.2229 76.3284H39.559C38.8136 76.3284 38.209 75.7238 38.209 74.9794V40.2625C38.209 39.5182 38.8136 38.9136 39.559 38.9136H74.2229C74.5801 38.9136 74.9238 39.0554 75.1764 39.3091C75.43 39.5617 75.5719 39.9054 75.5719 40.2626V74.9794C75.5719 75.3366 75.43 75.6803 75.1764 75.933C74.9238 76.1866 74.5801 76.3284 74.2229 76.3284ZM40.908 73.6293H72.8739V41.6131H40.908V73.6293Z" fill="#9924FF" stroke="#9924FF"/>
<path d="M74.2238 93.2216C69.3631 93.2247 64.7001 91.296 61.2631 87.8589C57.8269 84.4217 55.8972 79.7589 55.9004 74.8982C55.9045 70.0374 57.8405 65.3776 61.283 61.9467C64.7253 58.5148 69.3904 56.5922 74.2511 56.6026C79.1119 56.6129 83.7685 58.5562 87.1954 62.0037C90.6223 65.4513 92.5374 70.1193 92.5199 74.9801C92.4992 79.8201 90.5622 84.4561 87.1344 87.8745C83.7065 91.2922 79.0655 93.2145 74.2243 93.2219L74.2238 93.2216ZM74.2238 59.3157C70.0858 59.3116 66.1154 60.9515 63.1857 63.873C60.2557 66.7955 58.6067 70.7618 58.5992 74.899C58.592 79.037 60.2277 83.0096 63.1472 85.9414C66.0679 88.8732 70.032 90.5267 74.17 90.5371C78.308 90.5485 82.2806 88.9158 85.2156 85.9984C88.1506 83.0809 89.8071 79.1189 89.8216 74.9809C89.8351 70.8336 88.1993 66.8507 85.2726 63.9114C82.3469 60.9722 78.3713 59.3189 74.2238 59.3157Z" fill="#9924FF" stroke="#9924FF"/>
<path d="M76.3543 12.2913H47.4125C46.6671 12.2913 46.0625 11.6867 46.0625 10.9413C46.0625 10.1969 46.6671 9.59229 47.4125 9.59229H76.3543C77.0997 9.59229 77.7033 10.1969 77.7033 10.9413C77.7033 11.6867 77.0997 12.2913 76.3543 12.2913Z" fill="#9924FF" stroke="#9924FF"/>
<path d="M56.6278 20.3581H47.4125C46.6671 20.3581 46.0625 19.7545 46.0625 19.0091C46.0625 18.2637 46.6671 17.6602 47.4125 17.6602H56.6278C57.3732 17.6602 57.9768 18.2637 57.9768 19.0091C57.9768 19.7545 57.3732 20.3581 56.6278 20.3581Z" fill="#9924FF" stroke="#9924FF"/>
</svg>
