<svg width="159" height="133" viewBox="0 0 159 133" fill="none" xmlns="http://www.w3.org/2000/svg">
<path d="M135.483 22.0457C126.009 15.1409 114.589 11.4199 102.866 11.4199C91.1423 11.4199 79.7225 15.1409 70.2487 22.0457C68.3218 23.4524 66.4901 24.985 64.7646 26.6342C50.8702 19.7318 34.3927 20.505 21.2091 28.6789C8.02194 36.8527 0 51.2639 0 66.7771C0 82.2913 8.02194 96.7028 21.2091 104.875C34.3951 113.049 50.8711 113.822 64.7646 106.921C66.641 108.722 68.6504 110.378 70.7761 111.878C80.1492 118.543 91.3647 122.123 102.866 122.123C114.367 122.123 125.581 118.543 134.955 111.878C144.519 105.068 151.671 95.3962 155.378 84.256C159.086 73.1158 159.156 61.087 155.58 49.9034C152.003 38.721 144.965 28.9652 135.482 22.0437L135.483 22.0457ZM5.30718 66.8699C5.31424 53.4862 12.0897 41.0147 23.3122 33.7226C34.5358 26.4329 48.6846 25.3122 60.9162 30.7457C52.7518 40.2355 48.0247 52.1995 47.4949 64.7066L41.5881 57.3238C41.1031 56.7082 40.3686 56.3421 39.5846 56.3221C38.7548 56.3433 37.9826 56.7529 37.5012 57.4298L33.8628 62.7032L23.3159 49.5196C22.8133 48.8133 21.9952 48.399 21.1277 48.4119C20.2978 48.4331 19.5257 48.8428 19.0442 49.5196L5.30739 68.7935V66.869L5.30718 66.8699ZM44.8579 106.421C36.0332 106.409 27.4649 103.447 20.5188 98.0054C13.5714 92.5626 8.64421 84.9538 6.51947 76.388L21.2592 55.4262L40.1645 79.1567L44.2772 75.8865L37.2111 66.8699L39.716 63.3105L47.9157 73.5406C49.2364 84.4289 53.7611 94.6801 60.9158 102.993C55.8636 105.252 50.3914 106.419 44.8579 106.421ZM131.869 107.686C121.829 114.816 109.515 117.996 97.2788 116.624C85.0417 115.25 73.7391 109.417 65.5297 100.241C57.3195 91.0629 52.7771 79.1836 52.7687 66.8705C52.771 58.9791 54.6367 51.1997 58.2162 44.1665C61.7946 37.1332 66.9834 31.0441 73.3609 26.3968C81.9313 20.151 92.2618 16.7868 102.866 16.7868C113.471 16.7868 123.801 20.151 132.372 26.3968C140.953 32.6614 147.321 41.4909 150.554 51.6117C153.789 61.7324 153.722 72.6183 150.364 82.6978C147.004 92.7785 140.529 101.529 131.87 107.687L131.869 107.686Z" fill="white"/>
<path d="M141.096 120.526L138.038 116.254C127.767 123.567 115.472 127.497 102.863 127.497C90.2542 127.497 77.9602 123.567 67.6879 116.254L64.6299 120.526C75.783 128.501 89.1513 132.787 102.864 132.787C116.576 132.787 129.943 128.5 141.098 120.526H141.096Z" fill="#9924FF"/>
<path d="M67.2171 17.8541C77.5578 10.323 90.02 6.26548 102.811 6.26548C115.602 6.26548 128.067 10.323 138.405 17.8541L141.516 13.5823V13.5835C130.253 5.39428 116.684 0.983887 102.758 0.983887C88.8318 0.983887 75.2634 5.39458 64 13.5835L67.2171 17.8541Z" fill="#9924FF"/>
<path d="M39.5848 51.049C41.6824 51.049 43.6954 50.2156 45.1782 48.7324C46.6611 47.2493 47.4948 45.2363 47.4948 43.139C47.4948 41.0417 46.6614 39.0284 45.1782 37.5455C43.6951 36.0627 41.6821 35.229 39.5848 35.229C37.4875 35.229 35.4742 36.0624 33.9913 37.5455C32.5085 39.0287 31.6748 41.0417 31.6748 43.139C31.6748 45.2363 32.5082 47.2496 33.9913 48.7324C35.4745 50.2153 37.4875 51.049 39.5848 51.049ZM39.5848 40.5021C40.6513 40.5021 41.613 41.1448 42.0202 42.1301C42.4287 43.1153 42.2038 44.2488 41.4493 45.0034C40.6948 45.7579 39.5613 45.9827 38.576 45.5743C37.5908 45.167 36.9481 44.2053 36.9481 43.1388C36.9481 41.6828 38.1287 40.5021 39.5848 40.5021Z" fill="#9924FF"/>
<path d="M102.865 32.5928C93.7744 32.5928 85.0555 36.204 78.6273 42.6322C72.1991 49.0603 68.5879 57.7793 68.5879 66.8701C68.5879 75.9609 72.1991 84.6798 78.6273 91.108C85.0555 97.5361 93.7744 101.147 102.865 101.147C111.956 101.147 120.675 97.5361 127.103 91.108C133.531 84.6798 137.142 75.9609 137.142 66.8701C137.142 57.7793 133.531 49.0603 127.103 42.6322C120.675 36.204 111.956 32.5928 102.865 32.5928ZM102.865 95.8739C97.0304 95.8704 91.332 94.1071 86.5151 90.8135C81.6985 87.5211 77.987 82.8528 75.8646 77.4169H80.6897L87.8088 84.562H87.81C88.3067 85.0564 88.9812 85.3306 89.6816 85.3271H95.4293C96.265 87.6919 98.1731 89.5199 100.572 90.2546C102.971 90.9879 105.575 90.5418 107.591 89.0504C109.607 87.5578 110.798 85.199 110.798 82.6907C110.798 80.1823 109.608 77.8234 107.591 76.3309C105.575 74.8395 102.971 74.3934 100.572 75.1267C98.173 75.8612 96.2649 77.6893 95.4293 80.0542H90.7622L83.643 72.9092C83.1463 72.4148 82.4718 72.1405 81.7714 72.144H74.3627C73.6941 68.66 73.6941 65.0813 74.3627 61.5972H81.7714C82.4718 61.6007 83.1463 61.3264 83.643 60.8321L90.7622 53.687H95.4293C96.265 56.0518 98.1731 57.8798 100.572 58.6145C102.971 59.3478 105.575 58.9017 107.591 57.4103C109.607 55.9178 110.798 53.5589 110.798 51.0506C110.798 48.5422 109.608 46.1833 107.591 44.6908C105.575 43.1994 102.971 42.7533 100.572 43.4866C98.173 44.2211 96.2649 46.0492 95.4293 48.4141H89.6816C88.9812 48.4106 88.3067 48.6849 87.81 49.1792L80.6908 56.3243H75.8646C78.4366 49.7361 83.3263 44.3153 89.6144 41.0808C95.9036 37.845 103.157 37.0187 110.012 38.7572C116.867 40.4946 122.85 44.6779 126.838 50.5187C130.825 56.3584 132.541 63.4552 131.663 70.4719C130.785 77.4898 127.374 83.9438 122.069 88.6215C116.767 93.3004 109.937 95.8796 102.865 95.8747L102.865 95.8739ZM100.228 82.6904C100.228 81.6239 100.871 80.6622 101.856 80.2549C102.842 79.8465 103.975 80.0713 104.73 80.8258C105.484 81.5803 105.709 82.7139 105.301 83.6991C104.893 84.6844 103.932 85.3271 102.865 85.3271C101.409 85.3271 100.228 84.1464 100.228 82.6904ZM100.228 51.0498C100.228 49.9833 100.871 49.0216 101.856 48.6144C102.842 48.2059 103.975 48.4307 104.73 49.1852C105.484 49.9398 105.709 51.0733 105.301 52.0586C104.893 53.0438 103.932 53.6865 102.865 53.6865C101.409 53.6865 100.228 52.5058 100.228 51.0498Z" fill="#9924FF"/>
<path d="M100.229 22.0459H105.503V27.3193H100.229V22.0459Z" fill="white"/>
<path d="M100.229 106.42H105.503V111.694H100.229V106.42Z" fill="white"/>
<path d="M142.416 64.2324H147.689V69.5059H142.416V64.2324Z" fill="white"/>
<path d="M58.042 64.2324H63.3154V69.5059H58.042V64.2324Z" fill="white"/>
<path d="M128.971 37.0552L132.699 33.3262L136.428 37.054L132.7 40.7831L128.971 37.0552Z" fill="white"/>
<path d="M69.3174 96.6959L73.0452 92.9668L76.7743 96.6947L73.0465 100.424L69.3174 96.6959Z" fill="white"/>
<path d="M128.968 96.7081L132.697 92.979L136.426 96.7081L132.697 100.437L128.968 96.7081Z" fill="white"/>
<path d="M69.3271 37.0372L73.0562 33.3081L76.7853 37.0372L73.0562 40.7662L69.3271 37.0372Z" fill="white"/>
<path d="M105.897 64.2328H84.4082V69.5063H105.872C106.734 72.8493 109.179 75.5578 112.415 76.7583C115.652 77.9589 119.272 77.4987 122.106 75.527C124.941 73.5554 126.63 70.322 126.63 66.8696C126.63 63.4171 124.941 60.1835 122.106 58.2121C119.272 56.2408 115.652 55.7802 112.415 56.9809C109.179 58.1815 106.734 60.8901 105.872 64.2329L105.897 64.2328ZM121.322 66.8696C121.322 68.2679 120.767 69.6099 119.778 70.5986C118.789 71.5874 117.447 72.143 116.049 72.143C114.65 72.143 113.308 71.5874 112.32 70.5986C111.331 69.6099 110.775 68.2679 110.775 66.8696C110.775 65.4712 111.331 64.1292 112.32 63.1405C113.308 62.1517 114.65 61.5961 116.049 61.5961C117.447 61.5961 118.789 62.1517 119.778 63.1405C120.767 64.1292 121.322 65.4712 121.322 66.8696Z" fill="#9924FF"/>
</svg>
