<svg width="136" height="134" viewBox="0 0 136 134" fill="none" xmlns="http://www.w3.org/2000/svg">
<path d="M10.6866 43.8954H62.9074C63.7591 43.8954 64.4504 43.2041 64.4504 42.3523V27.378C64.4504 26.5263 63.7591 25.835 62.9074 25.835L10.6866 25.834C9.83485 25.834 9.14355 26.5253 9.14355 27.3771V42.3513C9.14355 43.2041 9.83488 43.8954 10.6866 43.8954ZM12.2297 28.9211H61.3648V40.8082H12.2297V28.9211Z" fill="#9924FF" stroke="#9924FF" stroke-width="0.5"/>
<path d="M23.9345 73.8369H10.6866C9.83485 73.8369 9.14355 74.5282 9.14355 75.38V88.9626C9.14355 89.8143 9.83488 90.5056 10.6866 90.5056H23.9345C24.7863 90.5056 25.4776 89.8143 25.4776 88.9626V75.38C25.4776 74.5282 24.7862 73.8369 23.9345 73.8369ZM22.3914 87.4195H12.2297V76.9239H22.3914V87.4195Z" fill="#9924FF" stroke="#9924FF" stroke-width="0.5"/>
<path d="M43.4218 73.8369H30.1739C29.3222 73.8369 28.6309 74.5282 28.6309 75.38V88.9626C28.6309 89.8143 29.3222 90.5056 30.1739 90.5056H43.4218C44.2736 90.5056 44.9649 89.8143 44.9649 88.9626V75.38C44.9649 74.5282 44.2736 73.8369 43.4218 73.8369ZM41.8787 87.4195H31.717V76.9239H41.8787V87.4195Z" fill="#9924FF" stroke="#9924FF" stroke-width="0.5"/>
<path d="M62.9101 73.8369H49.6622C48.8104 73.8369 48.1191 74.5282 48.1191 75.38V88.9626C48.1191 89.8143 48.8105 90.5056 49.6622 90.5056H62.9101C63.7619 90.5056 64.4532 89.8143 64.4532 88.9626V75.38C64.4532 74.5282 63.7618 73.8369 62.9101 73.8369ZM61.367 87.4195H51.2053V76.9239H61.367V87.4195Z" fill="#9924FF" stroke="#9924FF" stroke-width="0.5"/>
<path d="M62.9142 48.7861H10.6808C9.82899 48.7861 9.1377 49.4775 9.1377 50.3292V67.396C9.1377 68.2478 9.82902 68.9391 10.6808 68.9391H62.9142C63.766 68.9391 64.4573 68.2478 64.4573 67.396V50.3292C64.4582 49.4774 63.7659 48.7861 62.9142 48.7861ZM61.3711 65.853H12.2234V51.8721H61.3711V65.853Z" fill="#9924FF" stroke="#9924FF" stroke-width="0.5"/>
<path d="M62.9073 108.636C65.4874 108.636 67.588 106.536 67.588 103.955C67.588 101.375 65.4883 99.2754 62.9073 99.2754C60.3272 99.2754 58.2275 101.375 58.2275 103.955C58.2275 106.535 60.3272 108.636 62.9073 108.636ZM62.9073 102.362C63.7868 102.362 64.5009 103.076 64.5009 103.955C64.5009 104.835 63.7868 105.549 62.9073 105.549C62.0278 105.549 61.3137 104.835 61.3137 103.955C61.3137 103.076 62.0278 102.362 62.9073 102.362Z" fill="white" stroke="white" stroke-width="0.5"/>
<path d="M112.699 91.0194C111.222 90.5192 109.654 90.2656 108.041 90.2656C101.645 90.2656 96.0082 94.3363 94.0302 100.354C93.5231 101.761 93.2656 103.331 93.2656 105.017C93.2656 113.183 99.8946 119.827 108.041 119.827C113.972 119.827 119.298 116.296 121.603 110.848C122.4 109.021 122.804 107.059 122.804 105.018C122.804 103.035 122.401 101.088 121.612 99.2448C119.975 95.3277 116.72 92.3266 112.699 91.0194ZM118.767 109.63C116.941 113.949 112.73 116.741 108.041 116.741C101.596 116.741 96.3517 111.481 96.3517 105.018C96.3517 103.69 96.5478 102.473 96.947 101.359C98.5227 96.5695 102.98 93.3528 108.04 93.3528C109.316 93.3528 110.55 93.5518 111.725 93.95C114.908 94.985 117.473 97.348 118.769 100.447C119.398 101.917 119.717 103.455 119.717 105.019C119.718 106.632 119.4 108.178 118.767 109.63L118.767 109.63Z" fill="white" stroke="white" stroke-width="0.5"/>
<path d="M73.1886 25.8325C72.3368 25.8325 71.6455 26.5238 71.6455 27.3756V88.9624C71.6455 89.8142 72.3368 90.5055 73.1886 90.5055C74.0403 90.5055 74.7316 89.8141 74.7316 88.9624L74.7326 27.3781C74.7326 26.5254 74.0413 25.8341 73.1886 25.8341V25.8325Z" fill="white" stroke="white" stroke-width="0.5"/>
<path d="M115.13 67.8501H83.7765C82.9247 67.8501 82.2334 68.5414 82.2334 69.3932C82.2334 70.2449 82.9247 70.9362 83.7765 70.9362H115.13C115.982 70.9362 116.673 70.2449 116.673 69.3932C116.674 68.5414 115.983 67.8501 115.13 67.8501Z" fill="white" stroke="white" stroke-width="0.5"/>
<path d="M133.926 4.19234C133.718 4.05368 129.854 1.47076 130.1 1.63506C128.326 0.448529 125.764 0.988307 124.607 2.72453L114.656 17.5956H8.10267C4.13211 17.5956 0.900391 20.8273 0.900391 24.7979V105.031C0.900391 109.012 4.13211 112.253 8.10267 112.253H50.6582V120.237C45.1197 120.976 40.8301 125.719 40.8301 131.457C40.8301 132.309 41.5215 133 42.3732 133H83.7751H83.8167C84.6684 133 85.3597 132.309 85.3597 131.457C85.3597 131.325 85.3439 131.197 85.3122 131.075C85.126 125.475 80.8404 120.942 75.3761 120.263V112.251H87.9138C88.2011 112.972 88.5121 113.682 88.8844 114.382L84.8543 118.425C84.5651 118.714 84.4017 119.107 84.4017 119.517C84.4017 119.927 84.5651 120.32 84.8553 120.61L92.4696 128.202C92.7588 128.49 93.151 128.653 93.5601 128.653C93.9433 128.694 94.3643 128.489 94.6535 128.198L98.9597 123.875C99.6669 124.199 100.387 124.483 101.112 124.729V130.875C101.112 131.727 101.803 132.418 102.655 132.418H113.376C114.228 132.418 114.919 131.727 114.919 130.875V124.733C115.652 124.487 116.375 124.201 117.08 123.878L121.423 128.203C122.029 128.806 123.005 128.801 123.606 128.2L131.179 120.607C131.778 120.005 131.78 119.034 131.182 118.432L127.165 114.38C127.591 113.576 127.954 112.775 128.261 111.965H133.893C134.745 111.965 135.436 111.274 135.436 110.422V99.6603C135.436 98.8085 134.745 98.1172 133.893 98.1172H128.831C128.529 97.0674 128.158 96.068 127.724 95.1302L131.177 91.6766C131.778 91.0754 131.78 90.1018 131.182 89.4997L124.921 83.1876V24.798C124.921 24.7891 124.92 24.7812 124.92 24.7723L135.013 9.68615C136.168 7.95391 135.784 5.43136 133.925 4.19227L133.926 4.19234ZM122.094 23.4463C122.089 23.4542 122.08 23.4591 122.075 23.4671L102.851 52.2093L97.5754 48.6784L124.239 8.82822L125.502 9.67403L116.758 22.8862C116.287 23.5973 116.483 24.555 117.193 25.0255C117.899 25.494 118.858 25.3048 119.332 24.5907L128.068 11.3923L129.514 12.3609L122.094 23.4463ZM96.4454 51.6332L100.494 54.3439L95.0559 58.0163L96.4454 51.6332ZM128.387 4.20705L130.295 5.47874C131.645 6.5157 133.137 6.91684 132.45 7.96569L131.448 9.46421L126.158 5.96221L127.183 4.43101C127.437 4.05365 127.999 3.94856 128.387 4.20705ZM3.98658 105.03V98.7531H80.9333C80.8878 98.8155 80.863 98.8897 80.8273 98.9591C80.8006 99.0106 80.7699 99.0561 80.7491 99.1106C80.6827 99.282 80.6382 99.4642 80.6382 99.6593V109.165C73.2209 109.165 87.9931 109.153 8.10063 109.165C5.83158 109.165 3.98555 107.311 3.98555 105.03L3.98658 105.03ZM82.0895 129.914H44.0649C44.7899 126.103 48.1455 123.213 52.1635 123.213H52.1952C52.1991 123.213 52.2011 123.215 52.2051 123.215C58.9984 123.214 65.5848 123.214 73.9914 123.213C78.0087 123.213 81.3646 126.102 82.0895 129.914ZM72.2911 120.126H53.7464V112.252H72.2911V120.126ZM124.758 93.7338C124.276 94.2162 124.168 94.959 124.491 95.5582C125.204 96.8774 125.757 98.3749 126.136 100.008C126.298 100.708 126.921 101.204 127.64 101.204H132.352V108.879H127.167C126.492 108.879 125.897 109.316 125.695 109.959C125.282 111.268 124.703 112.542 123.925 113.853C123.566 114.458 123.661 115.229 124.156 115.727L127.911 119.515L122.51 124.929L118.48 120.915C118.003 120.438 117.27 120.327 116.675 120.641C115.494 121.26 114.247 121.753 112.968 122.104C112.298 122.29 111.835 122.898 111.835 123.592V129.334H104.2V123.592C104.2 122.9 103.739 122.292 103.072 122.106C101.812 121.754 100.561 121.259 99.3523 120.636C98.7561 120.328 98.0261 120.442 97.5517 120.919L93.5573 124.928L88.1319 119.516L91.9004 115.727C92.3966 115.227 92.4897 114.452 92.1272 113.846C91.4696 112.751 90.9585 111.643 90.5108 110.393C90.4722 110.209 90.4118 110.032 90.3138 109.878C90.3108 109.871 90.3078 109.864 90.3068 109.86C90.0751 109.268 89.5046 108.88 88.8697 108.88H83.7255V101.204H88.3963C89.1174 101.204 89.7423 100.705 89.9018 100.001C90.0761 99.2326 90.3029 98.4808 90.5951 97.7202C90.8585 96.9655 91.1784 96.2375 91.5459 95.5581C91.8697 94.9579 91.7608 94.217 91.2785 93.7347L88.1299 90.5862L93.5634 85.1369L96.4833 88.0557C96.9864 88.5579 97.7718 88.655 98.381 88.2796C99.7874 87.4169 101.368 86.7335 103.079 86.2482C103.743 86.0591 104.201 85.4529 104.201 84.7636L104.202 80.7484H111.836V84.7616C111.836 85.4529 112.296 86.061 112.962 86.2472C114.643 86.7196 116.231 87.404 117.683 88.2825C118.279 88.643 119.044 88.5608 119.548 88.0785L122.514 85.133L127.911 90.5792L124.758 93.7338ZM121.836 81.5645C121.688 81.6378 121.548 81.7359 121.424 81.8597L118.235 85.0488C117.18 84.4883 116.072 84.0108 114.922 83.6236V79.2053C114.922 78.3535 114.231 77.6622 113.379 77.6622H102.658C101.806 77.6622 101.115 78.3535 101.115 79.2053V83.6266C99.9619 84.0169 98.8655 84.4893 97.8336 85.038L94.6544 81.8598C94.3652 81.5706 93.972 81.4082 93.5629 81.4082C93.1529 81.4082 92.7587 81.5716 92.4695 81.8618L84.8552 89.4959C84.254 90.099 84.255 91.0756 84.8572 91.6768L88.3118 95.1324C88.3078 95.1413 88.3048 95.1502 88.3009 95.1591C88.2236 95.3275 88.1503 95.4968 88.078 95.6672L3.98884 95.6682V24.7965C3.98884 22.5264 5.83497 20.6814 8.10392 20.6814H112.589L109.143 25.8314H83.7779C82.9261 25.8314 82.2348 26.5228 82.2348 27.3745C82.2348 28.2263 82.9261 28.9176 83.7779 28.9176H107.079L99.775 39.8359H83.7776C82.9258 39.8359 82.2345 40.5272 82.2345 41.3789C82.2345 42.2307 82.9259 42.922 83.7776 42.922H97.7098L94.2078 48.1583C94.0711 48.3336 93.9622 48.5336 93.9117 48.7654L92.8054 53.8513H83.7687C82.9169 53.8513 82.2256 54.5426 82.2256 55.3944C82.2256 56.2461 82.9169 56.9374 83.7687 56.9374H92.1337L91.2245 61.1179C91.0908 61.735 91.3453 62.3708 91.8663 62.7244C92.3972 63.0819 93.0796 63.073 93.5966 62.7254L102.168 56.9364H115.13C115.982 56.9364 116.673 56.2451 116.673 55.3933C116.673 54.5415 115.982 53.8502 115.13 53.8502H105.466L121.839 29.3788L121.836 81.5645Z" fill="white" stroke="white" stroke-width="0.5"/>
</svg>
