<svg width="132" height="134" viewBox="0 0 132 134" fill="none" xmlns="http://www.w3.org/2000/svg">
<path d="M29.5167 8.72375H40.295C40.8767 8.72375 41.3477 8.25276 41.3477 7.67096C41.3477 7.08916 40.8767 6.61816 40.295 6.61816H29.5167C28.9349 6.61816 28.4639 7.08916 28.4639 7.67096C28.4649 8.25276 28.9359 8.72375 29.5167 8.72375Z" fill="white"/>
<path d="M44.6475 8.72375H49.2075C49.7893 8.72375 50.2603 8.25276 50.2603 7.67096C50.2603 7.08916 49.7893 6.61816 49.2075 6.61816H44.6475C44.0657 6.61816 43.5947 7.08916 43.5947 7.67096C43.5958 8.25276 44.0657 8.72375 44.6475 8.72375Z" fill="white"/>
<path d="M39.3623 119.063C36.4706 119.063 34.127 121.407 34.127 124.299C34.127 127.19 36.4706 129.534 39.3623 129.534C42.2529 129.534 44.5976 127.19 44.5976 124.299C44.5976 121.408 42.254 119.063 39.3623 119.063Z" fill="#9924FF"/>
<path d="M36.486 48.929C36.9837 49.2338 37.5439 49.3918 38.1124 49.3918C38.3566 49.3918 38.6029 49.3631 38.8461 49.3046L56.0192 45.192C56.8288 44.998 57.5153 44.4994 57.9524 43.7882C58.3886 43.0782 58.5219 42.2398 58.328 41.4282L54.2154 24.255C54.0215 23.4454 53.5228 22.7589 52.8116 22.3218C52.1016 21.8857 51.2673 21.7533 50.4516 21.9462L33.2784 26.0599C31.6059 26.4611 30.5696 28.1481 30.9697 29.8226L35.0833 46.9947C35.2773 47.8064 35.776 48.4929 36.486 48.929ZM33.0167 29.3313C32.8864 28.7865 33.223 28.2375 33.7689 28.1071L50.942 23.9935C51.021 23.974 51.1 23.9647 51.1801 23.9647C51.3648 23.9647 51.5474 24.016 51.7095 24.1156C51.9414 24.2572 52.1046 24.4809 52.1672 24.7446L56.2798 41.9188C56.3434 42.1815 56.2993 42.4554 56.1577 42.6863C56.0161 42.9182 55.7924 43.0814 55.5287 43.144L38.3545 47.2566C38.0918 47.3212 37.8178 47.2761 37.587 47.1355C37.3561 46.9929 37.1929 46.7702 37.1303 46.5045L33.0167 29.3313Z" fill="#9924FF"/>
<path d="M42.041 43.922C42.1282 43.9446 42.2174 43.9559 42.3047 43.9559C42.5951 43.9559 42.8793 43.8348 43.0804 43.6142L50.8943 35.084C51.1293 34.8275 51.2216 34.4704 51.1426 34.1328C51.0626 33.7941 50.8204 33.5161 50.4962 33.3909L39.6388 29.2155C39.2715 29.0749 38.861 29.1478 38.5665 29.4063C38.273 29.6629 38.1458 30.0631 38.2371 30.4437L41.2817 43.1491C41.372 43.5277 41.6654 43.8243 42.041 43.9218L42.041 43.922ZM48.3003 34.8008L42.8679 40.7317L40.751 31.8978L48.3003 34.8008Z" fill="white"/>
<path d="M41.1507 91.0638L26.0134 81.9661C24.5389 81.0765 22.6179 81.5608 21.7314 83.0333L12.6348 98.1696C12.2049 98.8848 12.0797 99.7252 12.2818 100.534C12.4829 101.343 12.9878 102.024 13.7019 102.454L28.8371 111.551H28.8382C29.34 111.854 29.894 111.996 30.441 111.996C31.501 111.996 32.5363 111.457 33.1222 110.485L42.2188 95.3467C43.1033 93.8691 42.6242 91.9493 41.1507 91.0638ZM40.414 94.2612L31.3185 109.397C31.0301 109.877 30.4052 110.037 29.9219 109.745L14.7867 100.648C14.5548 100.508 14.3896 100.285 14.3239 100.023C14.2582 99.7601 14.2993 99.4861 14.4388 99.2542L23.5344 84.1179C23.8227 83.6367 24.4517 83.4807 24.9289 83.7701L40.0662 92.8677C40.5464 93.155 40.7013 93.782 40.414 94.2612Z" fill="#9924FF"/>
<path d="M30.1996 92.5638C27.8857 91.0349 24.7602 91.6741 23.2313 93.9839C22.5264 95.049 22.2719 96.3142 22.4761 97.5691L19.7783 98.6578C19.2386 98.8753 18.979 99.4879 19.1955 100.029C19.3607 100.438 19.7557 100.686 20.1713 100.686C20.3026 100.686 20.436 100.662 20.5653 100.61L23.2311 99.5341C23.5994 100.091 24.0766 100.576 24.6512 100.955C25.5029 101.519 26.4654 101.787 27.4176 101.787C29.0511 101.787 30.6549 100.994 31.6205 99.5351C33.1515 97.2212 32.5143 94.0946 30.1993 92.5637L30.1996 92.5638ZM29.8661 98.3715V98.3736C28.9765 99.7157 27.1552 100.087 25.8118 99.1996C25.1602 98.7676 24.7149 98.1078 24.5589 97.3433C24.404 96.5768 24.5548 95.798 24.9868 95.1444C25.5491 94.2958 26.4809 93.835 27.4321 93.835C27.9852 93.835 28.5454 93.991 29.04 94.3183C30.3853 95.209 30.7558 97.0271 29.8661 98.3715Z" fill="white"/>
<path d="M122.57 89.4879L106.287 82.6559C104.697 81.99 102.869 82.738 102.203 84.3254L95.369 100.609C94.7031 102.197 95.4532 104.031 97.0395 104.695L113.323 111.527C113.712 111.691 114.12 111.773 114.53 111.773C114.929 111.773 115.327 111.695 115.708 111.541C116.48 111.224 117.085 110.629 117.407 109.857L124.241 93.574C124.563 92.8054 124.567 91.9568 124.251 91.1852C123.937 90.4125 123.339 89.8111 122.57 89.4879ZM122.302 92.7602L115.468 109.044C115.363 109.294 115.165 109.488 114.912 109.591C114.66 109.695 114.384 109.691 114.14 109.586H114.138L97.8543 102.754C97.6039 102.65 97.408 102.452 97.3054 102.201C97.2027 101.951 97.2048 101.673 97.3095 101.423L104.144 85.1391C104.306 84.7502 104.684 84.5183 105.08 84.5183C105.212 84.5183 105.345 84.543 105.472 84.5963L121.756 91.4283C122.006 91.5329 122.202 91.731 122.305 91.9813C122.407 92.2317 122.406 92.5098 122.302 92.7602Z" fill="white"/>
<path d="M73.2728 65.825C75.0161 65.825 76.4292 64.4121 76.4292 62.6686C76.4292 62.3762 76.3769 62.0991 76.302 61.8303L75.4564 53.4049L78.6055 55.9291C79.056 56.2924 79.7219 56.2216 80.0831 55.766C80.4464 55.3124 80.3746 54.6506 79.921 54.2873L74.817 50.1962C74.4835 49.9295 74.0259 49.8936 73.6575 50.0926C73.2829 50.2948 73.0695 50.7011 73.1126 51.1228L73.9633 59.5955C73.7396 59.5453 73.5097 59.5145 73.2717 59.5145C71.5283 59.5145 70.1152 60.9274 70.1152 62.6709C70.1163 64.4122 71.5293 65.825 73.2728 65.825Z" fill="#9924FF"/>
<path d="M77.0678 33.1941C77.2608 33.3675 77.5121 33.4629 77.7707 33.4629C77.7933 33.4629 77.8159 33.4619 77.8385 33.4609C79.0349 33.3839 85.0983 32.8934 87.0304 30.7397C88.0616 29.5904 88.5819 28.1086 88.4977 26.5674C88.4136 25.0262 87.7353 23.6091 86.5861 22.5799C84.2096 20.4506 80.5514 20.6538 78.4265 23.0242C76.4943 25.179 76.6647 31.2607 76.7201 32.4583C76.7334 32.7405 76.8585 33.0063 77.0678 33.1941ZM79.9934 24.4301C80.7188 23.6215 81.7214 23.21 82.7311 23.21C83.6043 23.21 84.4827 23.5199 85.1815 24.1469C85.9131 24.8026 86.3451 25.7025 86.3984 26.6824C86.4518 27.6623 86.1214 28.6053 85.4657 29.335C84.5945 30.3057 81.3531 30.9932 78.8 31.2672C78.7928 28.6978 79.1212 25.4007 79.9934 24.4301Z" fill="#9924FF"/>
<path d="M81.4737 25.2503C80.7266 26.0835 80.7964 27.3651 81.6296 28.1122C82.4629 28.8593 83.7445 28.7895 84.4916 27.9563C85.2386 27.123 85.1688 25.8414 84.3356 25.0943C83.5014 24.3473 82.2208 24.4171 81.4737 25.2503Z" fill="white"/>
<path d="M130.178 25.9521L117.299 13.8737C116.69 13.3032 115.895 12.9872 115.065 13.0303C114.23 13.0559 113.458 13.4069 112.888 14.0133L100.805 26.8952C99.6287 28.1491 99.6924 30.1286 100.948 31.3075L113.828 43.3859C114.412 43.9338 115.166 44.2314 115.961 44.2314C115.994 44.2314 116.029 44.2314 116.062 44.2293C116.896 44.2037 117.669 43.8527 118.238 43.2463L130.32 30.3644C131.499 29.1105 131.434 27.131 130.178 25.9521ZM128.787 28.9228L116.703 41.8057C116.519 42.0027 116.267 42.1177 115.996 42.1259C115.686 42.1259 115.466 42.0366 115.271 41.8519L115.269 41.8509L102.389 29.7725C101.98 29.3878 101.957 28.7423 102.34 28.3349L114.423 15.4531C114.608 15.256 114.859 15.1411 115.13 15.1329H115.163C115.422 15.1329 115.667 15.2293 115.858 15.4089L128.738 27.4872C129.147 27.871 129.17 28.5154 128.787 28.9228Z" fill="#9924FF"/>
<path d="M124.68 29.367C124.669 29.3126 124.663 29.2592 124.644 29.2089C124.626 29.1648 124.599 29.1279 124.574 29.0879C124.541 29.0335 124.509 28.9811 124.465 28.935C124.456 28.9247 124.452 28.9124 124.443 28.9021L114.722 19.784C114.715 19.7779 114.705 19.7748 114.698 19.7686C114.656 19.7327 114.607 19.7101 114.56 19.6824C114.509 19.6527 114.465 19.6198 114.41 19.6003C114.377 19.5891 114.34 19.5911 114.306 19.585C114.243 19.5726 114.179 19.5501 114.12 19.5562C114.11 19.5562 114.101 19.5624 114.091 19.5624C114.083 19.5634 114.075 19.5593 114.066 19.5593C114.024 19.5634 113.988 19.585 113.948 19.5952C113.889 19.6106 113.829 19.6209 113.774 19.6486C113.724 19.6732 113.685 19.7101 113.641 19.744C113.605 19.7717 113.563 19.7892 113.532 19.822L106.647 27.1649C106.64 27.171 106.639 27.1792 106.633 27.1854C106.591 27.2326 106.566 27.289 106.535 27.3444C106.512 27.3865 106.482 27.4234 106.467 27.4676C106.452 27.5127 106.452 27.5609 106.444 27.6081C106.434 27.6697 106.421 27.7292 106.425 27.7908C106.426 27.799 106.422 27.8072 106.422 27.8154C106.427 27.8667 106.45 27.9098 106.463 27.957C106.476 28.0042 106.481 28.0514 106.503 28.0966C106.54 28.1746 106.593 28.2423 106.651 28.3039C106.664 28.3182 106.669 28.3377 106.685 28.3511L106.693 28.3593C106.694 28.3603 106.695 28.3613 106.696 28.3623L116.405 37.4692C116.446 37.5082 116.497 37.5287 116.546 37.5584C116.586 37.5841 116.622 37.6169 116.666 37.6344C116.765 37.6744 116.871 37.697 116.981 37.697H117.003H117.007C117.119 37.6929 117.228 37.6672 117.327 37.622C117.428 37.5769 117.517 37.5123 117.592 37.4332C117.593 37.4322 117.594 37.4322 117.595 37.4312L124.481 30.0883C124.505 30.0616 124.514 30.0288 124.535 30.0001C124.573 29.9488 124.609 29.8985 124.635 29.84C124.655 29.7918 124.663 29.7425 124.675 29.6922C124.684 29.6522 124.703 29.6163 124.706 29.5732C124.707 29.5578 124.7 29.5434 124.7 29.5281C124.701 29.4757 124.69 29.4224 124.68 29.367ZM113.486 22.3348L113.866 26.2864L109.393 26.6989L113.486 22.3348ZM109.202 28.4084L114.027 27.9631L114.123 28.9574C114.162 29.3668 114.491 29.688 114.902 29.7167L115.949 29.7916L116.085 34.8657L109.202 28.4084ZM115.733 28.0883L115.626 26.9739C115.626 26.9729 115.627 26.9718 115.626 26.9698C115.626 26.9688 115.625 26.9667 115.625 26.9657L115.198 22.5389L121.559 28.5058L115.733 28.0883ZM117.766 34.7889L117.635 29.9129L122.041 30.2289L117.766 34.7889Z" fill="white"/>
<path d="M82.7475 75.8754C81.7521 74.3896 79.7337 73.9822 78.2437 74.9817L77.7255 75.3275V70.1599H83.9262C85.647 70.1599 87.0467 68.7603 87.0467 67.0394V49.3798C87.0467 47.659 85.6471 46.2583 83.9262 46.2583H77.7255V40.2596L80.4241 42.6792V42.6802C81.0203 43.2127 81.7642 43.4754 82.5061 43.4754C83.3629 43.4754 84.2166 43.1245 84.8303 42.4391L96.6204 29.2903C97.7697 28.0097 97.6609 26.0324 96.3803 24.8832L83.2337 13.093C81.949 11.9458 79.9737 12.0546 78.8245 13.3331L77.7245 14.5594L77.7255 7.85559C77.7255 4.07527 74.6481 1 70.8688 1H7.85559C4.07527 1 1 4.07632 1 7.85559V126.143C1 129.924 4.07632 133 7.85559 133H70.8688C74.6492 133 77.7255 129.923 77.7255 126.143V104.077L91.5257 94.8508C93.0136 93.8565 93.4148 91.8352 92.4195 90.3492L82.7475 75.8754ZM83.9275 48.3642C84.4868 48.3642 84.9434 48.8209 84.9434 49.3811V67.0407C84.9434 67.601 84.4868 68.0566 83.9275 68.0566H66.2671C65.7069 68.0566 65.2502 67.601 65.2502 67.0407V49.3811C65.2502 48.8209 65.7069 48.3642 66.2671 48.3642H83.9275ZM75.6211 70.1601V76.7333L71.1851 79.6988V70.1609L75.6211 70.1601ZM62.8777 89.1608L69.0805 98.441V115.786H9.64765V68.6027L19.0489 76.2022H19.05C19.6266 76.6691 20.3203 76.8948 21.0088 76.8948C21.92 76.8948 22.824 76.4977 23.4387 75.7374L34.5393 62.0028C35.0636 61.3543 35.3038 60.5406 35.2155 59.7104C35.1283 58.8813 34.7219 58.1364 34.0744 57.613L20.3399 46.5124C18.9997 45.4278 17.0316 45.6392 15.9501 46.9772L9.64668 54.7759L9.64771 15.2652H69.0805V24.2036L67.0365 26.4837C65.8883 27.7643 65.9961 29.7415 67.2766 30.8908L69.0806 32.5079V46.258H66.2669C64.5461 46.258 63.1454 47.6576 63.1454 49.3795V67.0391C63.1454 68.7599 64.545 70.1596 66.2669 70.1596H69.0806V81.1041L63.7724 84.6525C62.2835 85.6479 61.8823 87.6682 62.8777 89.1592L62.8777 89.1608ZM6.6391 63.4669C6.42772 63.2955 6.29535 63.0523 6.26662 62.7824C6.23789 62.5136 6.31587 62.2478 6.48621 62.0375L17.5868 48.3029C17.9377 47.8668 18.5822 47.8001 19.0162 48.1511L32.7518 59.2527C32.9622 59.422 33.0935 59.6652 33.1223 59.9351C33.151 60.205 33.073 60.4707 32.9027 60.6811L21.801 74.4156C21.4521 74.8518 20.8088 74.9215 20.3726 74.5675L6.6391 63.4669ZM71.1838 46.2598V34.3969L75.6198 38.3743V46.2601L71.1838 46.2598ZM80.3902 14.7427C80.7668 14.3251 81.4122 14.2923 81.8268 14.6637L94.9734 26.4528C95.3911 26.8284 95.428 27.4718 95.0535 27.8883L83.2633 41.0371C82.8867 41.4568 82.2444 41.4886 81.8288 41.1141V41.1151L77.5468 37.2754C77.4318 37.0938 77.279 36.9399 77.0789 36.8557L68.681 29.3261C68.2634 28.9505 68.2285 28.3071 68.6031 27.8905L80.3902 14.7427ZM75.6198 126.143C75.6198 128.764 73.4885 130.895 70.8678 130.895L7.85456 130.896C5.23486 130.896 3.10361 128.765 3.10361 126.144V7.8561C3.10361 5.23641 5.23486 3.10515 7.85456 3.10515H70.8678C73.4885 3.10515 75.6198 5.23641 75.6198 7.8561L75.6208 16.9106L71.1848 21.8576V14.2139C71.1848 13.6321 70.7138 13.1611 70.132 13.1611L8.5951 13.1621C8.0133 13.1621 7.5423 13.6331 7.5423 14.2149V57.3822L4.84977 60.7141C4.32542 61.3637 4.08529 62.1763 4.17356 63.0065C4.2618 63.8356 4.66712 64.5806 5.31564 65.1039L7.54233 66.9037V116.84C7.54233 117.422 8.01333 117.893 8.59512 117.893H70.1347C70.7165 117.893 71.1875 117.422 71.1875 116.84V101.591L72.5502 103.63C73.0335 104.354 73.7672 104.843 74.6178 105.013C74.8312 105.054 75.0457 105.077 75.2571 105.077C75.3823 105.077 75.5003 105.037 75.6224 105.023L75.6198 126.143ZM90.3528 93.1021L75.8804 102.777C75.63 102.944 75.3232 103.011 75.0256 102.946C74.726 102.886 74.4664 102.714 74.2981 102.458L64.625 87.99C64.2761 87.4636 64.4166 86.7525 64.94 86.4036L77.2576 78.171H77.2555L79.4094 76.7324C79.9358 76.3794 80.6469 76.5272 80.9958 77.0443L90.6689 91.5189C90.8372 91.7713 90.8967 92.0761 90.8393 92.3736C90.7808 92.6753 90.6084 92.9338 90.3528 93.1021Z" fill="white" stroke="white"/>
<path d="M81.6657 82.9681C81.3466 82.4909 80.7001 82.3616 80.223 82.6818L73.8415 86.9473C73.8333 86.9268 73.8415 86.9042 73.8292 86.8857L73.507 86.4024C73.4177 86.2701 73.2382 86.2342 73.1058 86.3224L70.5118 88.0566C70.3794 88.1458 70.3435 88.3254 70.4317 88.4578L70.755 88.941C70.7673 88.9595 70.7919 88.9616 70.8073 88.9759L70.3548 89.2786C69.8776 89.5977 69.7484 90.2442 70.0685 90.7214L74.3721 97.1603C74.6912 97.6375 75.3377 97.7668 75.8148 97.4466L85.684 90.8508C86.1611 90.5317 86.2904 89.8852 85.9702 89.4081L81.6657 82.9681ZM72.3876 91.3073L71.6652 90.2258L73.8991 88.7328L74.6215 89.8143L72.3876 91.3073ZM81.5436 91.5649C80.0711 92.5489 78.0793 92.1528 77.0942 90.6804C76.1101 89.2079 76.5062 87.2161 77.9787 86.231C79.4512 85.2469 81.443 85.643 82.4281 87.1155C83.4121 88.589 83.0161 90.5806 81.5436 91.5649Z" fill="#9924FF"/>
<path d="M78.3819 86.8321C77.2408 87.5945 76.934 89.1378 77.6964 90.2788C78.4588 91.4199 80.0021 91.7267 81.1431 90.9643C82.2842 90.2019 82.591 88.6586 81.8286 87.5176C81.0651 86.3765 79.5219 86.0697 78.3819 86.8321ZM80.7019 90.3035C79.9262 90.8217 78.8764 90.6134 78.3572 89.8377C77.839 89.0619 78.0473 88.0122 78.8231 87.493C79.5988 86.9748 80.6485 87.1831 81.1677 87.9589C81.686 88.7346 81.4776 89.7843 80.7019 90.3035Z" fill="#9924FF"/>
<path d="M22.1483 60.5764C22.3412 60.6144 22.4254 60.7498 22.4325 60.9489C22.4418 61.2054 22.4664 61.4619 22.4931 61.7164C22.5423 62.1833 22.7506 62.4121 23.2083 62.5148C24.1164 62.7189 25.0214 62.9355 25.9337 63.1171C26.1707 63.1643 26.4303 63.1007 26.6786 63.0884C26.7279 63.0299 26.7771 62.9724 26.8264 62.9139C26.8438 62.7272 26.8869 62.5384 26.8756 62.3537C26.8346 61.698 26.7648 61.0433 26.7248 60.3876C26.7002 59.9843 26.6468 59.5965 26.4108 59.2558C26.2364 59.108 26.0619 58.9593 25.8885 58.8115C25.2421 58.5252 24.6161 58.1712 23.945 57.9639C22.0262 57.3718 20.0612 57.4108 18.0921 57.6591C16.4329 57.8685 14.8558 58.3313 13.4242 59.2147C13.0722 59.4323 12.7623 59.7176 12.434 59.972C12.3109 60.1167 12.1867 60.2624 12.0635 60.4071C11.8963 60.7816 11.8994 61.1705 11.9373 61.5697C11.9969 62.1925 12.0297 62.8174 12.0851 63.4403C12.1036 63.6445 12.1559 63.8446 12.1939 64.0467C12.2667 64.1083 12.3386 64.1699 12.4114 64.2325C12.5797 64.2376 12.7644 64.291 12.9142 64.2407C13.888 63.9195 14.8577 63.584 15.8232 63.2371C16.1854 63.1068 16.3681 62.7897 16.3476 62.407C16.3363 62.1884 16.3116 61.9709 16.2932 61.7523C16.2398 61.113 16.2634 61.0741 16.8585 60.8185C16.9027 60.8001 16.9468 60.7837 16.9909 60.7672C18.1258 60.3455 19.311 60.249 20.5022 60.286C21.0533 60.3055 21.6004 60.4697 22.1483 60.5764Z" fill="#9924FF"/>
<path d="M64.1385 72.9964L51.4155 60.7508C50.1729 59.5563 48.1945 59.5964 47.0011 60.8349L34.7575 73.5589C34.1788 74.1592 33.8699 74.9483 33.8853 75.7825C33.9017 76.6167 34.2414 77.3945 34.8416 77.9712L47.5646 90.2169C48.169 90.7987 48.9488 91.086 49.7277 91.086C50.5465 91.086 51.3664 90.7658 51.9769 90.1296L64.2226 77.4067C65.416 76.1702 65.377 74.1908 64.1385 72.9964ZM62.707 75.9495L50.4614 88.6725C50.0715 89.0778 49.4301 89.0901 49.0248 88.7012L36.3018 76.4556C36.1059 76.2668 35.9961 76.0133 35.9899 75.7424C35.9848 75.4715 36.0853 75.214 36.2731 75.019L48.5188 62.295C48.9097 61.8907 49.5541 61.8815 49.9564 62.2683L62.6783 74.514C63.0816 74.9019 63.0949 75.5473 62.707 75.9495Z" fill="white"/>
<path d="M110.497 77.3519C110.723 77.3519 110.95 77.3293 111.174 77.2801C111.987 77.1015 112.682 76.6162 113.133 75.9133L122.646 61.0345C123.096 60.3326 123.246 59.4973 123.065 58.6826C122.887 57.8679 122.402 57.1722 121.699 56.7227L106.822 47.2095C105.373 46.2799 103.441 46.7047 102.511 48.1556L92.9981 63.0324C92.5476 63.7342 92.3978 64.5695 92.5763 65.3842C92.7569 66.199 93.2423 66.8957 93.9451 67.3451L108.822 76.8562C109.33 77.1846 109.907 77.3519 110.497 77.3519ZM94.6336 64.9347C94.5741 64.67 94.6233 64.3981 94.769 64.1703L104.282 49.2935C104.477 48.9908 104.807 48.8236 105.141 48.8236C105.328 48.8236 105.518 48.8759 105.686 48.9836L120.563 58.4968C120.793 58.6436 120.952 58.8693 121.009 59.1351C121.069 59.3988 121.019 59.6707 120.874 59.8995L111.36 74.7784C111.056 75.2514 110.428 75.391 109.957 75.0862L95.0799 65.573C94.849 65.4263 94.691 65.1995 94.6336 64.9347Z" fill="#9924FF"/>
<path d="M107.643 59.9699C107.412 59.8252 107.183 59.6774 106.954 59.5276C106.844 59.4558 106.762 59.4712 106.692 59.5861C106.565 59.7893 106.433 59.9883 106.305 60.1905C106.222 60.3218 106.233 60.3772 106.361 60.4614C106.585 60.6081 106.812 60.7508 107.036 60.8975C107.273 61.0524 107.338 61.2987 107.199 61.5121C107.064 61.7225 106.809 61.7656 106.569 61.6147C106.355 61.4793 106.143 61.3397 105.93 61.2033C105.751 61.0873 105.714 61.0965 105.604 61.2812C104.682 62.8143 105.552 65.0605 107.612 65.1672C108.624 65.2195 109.435 64.8275 110.02 63.9892C110.088 63.8917 110.122 63.8014 109.995 63.7234C109.743 63.5674 109.49 63.4135 109.244 63.2493C109.18 63.2073 109.124 63.1375 109.092 63.0677C109.017 62.9066 109.067 62.7045 109.192 62.5967C109.343 62.4674 109.535 62.4408 109.697 62.5403C109.941 62.6911 110.18 62.8502 110.423 63.0041C110.553 63.0862 110.608 63.0739 110.693 62.9435C110.822 62.7476 110.949 62.5505 111.074 62.3525C111.163 62.213 111.152 62.1596 111.016 62.0703C110.807 61.9349 110.597 61.8015 110.389 61.665C110.329 61.626 110.266 61.587 110.219 61.5347C110.078 61.3756 110.077 61.1458 110.211 60.9816C110.347 60.8154 110.579 60.7784 110.782 60.9026C111.018 61.0473 111.249 61.2022 111.483 61.351C111.621 61.4392 111.665 61.43 111.752 61.2966C111.884 61.0965 112.013 60.8954 112.141 60.6932C112.223 60.5629 112.211 60.5126 112.076 60.4244C111.855 60.2808 111.633 60.1392 111.412 59.9965C111.175 59.8426 111.103 59.5902 111.236 59.3829C111.359 59.1921 111.611 59.1602 111.846 59.309C112.068 59.4496 112.288 59.5943 112.51 59.7359C112.654 59.8272 112.709 59.8139 112.8 59.6671C112.999 59.3449 113.114 58.994 113.162 58.6195C113.313 57.4487 112.627 56.2758 111.56 55.886C110.376 55.4519 109.09 55.8644 108.429 56.8874C108.337 57.0291 108.346 57.0742 108.488 57.1666C108.717 57.3153 108.948 57.46 109.175 57.6109C109.395 57.7576 109.453 58.0162 109.316 58.2234C109.184 58.4246 108.933 58.4697 108.71 58.3312C108.596 58.2604 108.484 58.1865 108.372 58.1137C108.259 58.0408 108.148 57.9679 108.035 57.8961C107.884 57.7997 107.837 57.8089 107.743 57.9536C107.618 58.1465 107.494 58.3394 107.371 58.5323C107.277 58.679 107.288 58.7273 107.434 58.8227C107.655 58.9664 107.878 59.1059 108.098 59.2506C108.334 59.4066 108.397 59.6539 108.257 59.8673C108.124 60.0746 107.878 60.1176 107.643 59.9699Z" fill="#9924FF"/>
<path d="M105.567 66.7603C105.673 66.594 105.735 66.5776 105.909 66.6628C107.667 67.5165 109.915 66.946 111.019 65.3268C111.768 64.2288 112.466 63.096 113.186 61.9765C113.287 61.8185 113.237 61.5876 113.089 61.4901C112.935 61.3885 112.76 61.4388 112.638 61.6204C112.621 61.644 112.606 61.6686 112.59 61.6933C111.961 62.6712 111.335 63.6501 110.7 64.6238C110.555 64.8475 110.395 65.0671 110.213 65.26C108.915 66.6288 106.632 66.8782 105.125 65.3359C104.057 64.2431 103.824 62.5725 104.578 61.2406C104.906 60.6629 105.293 60.1191 105.653 59.5609C105.649 59.5588 105.646 59.5568 105.643 59.5537C105.728 59.4213 105.814 59.2879 105.899 59.1556C106.186 58.7092 106.475 58.2629 106.76 57.8155C106.865 57.6523 106.846 57.4994 106.719 57.3906C106.565 57.2593 106.363 57.3055 106.236 57.5035C105.561 58.5491 104.884 59.5917 104.219 60.6424C104.061 60.8917 103.923 61.1575 103.813 61.4304C103.163 63.0507 103.663 64.9767 105.009 66.0839C105.136 66.1886 105.146 66.245 105.054 66.3887C104.834 66.7314 104.614 67.0731 104.394 67.4148C104.283 67.5872 104.22 67.5995 104.044 67.4856C103.694 67.2598 103.344 67.0351 102.994 66.8094C102.867 66.7273 102.738 66.7006 102.607 66.7971C102.415 66.9397 102.441 67.186 102.664 67.3306C103.511 67.8775 104.361 68.4235 105.21 68.9704C105.39 69.0874 105.569 69.2074 105.753 69.3182C105.95 69.4373 106.167 69.3531 106.223 69.1458C106.262 69.0001 106.213 68.8862 106.059 68.7846C105.702 68.5517 105.343 68.3239 104.986 68.092C104.836 67.9945 104.821 67.9207 104.915 67.7729C105.132 67.4353 105.349 67.0979 105.567 66.7603Z" fill="white"/>
<path d="M49.5625 67.5483C45.148 67.5483 41.5576 71.1408 41.5576 75.5532C41.5576 79.9666 45.148 83.557 49.5625 83.557C53.9759 83.557 57.5663 79.9666 57.5663 75.5532C57.5663 71.1398 53.9748 67.5483 49.5625 67.5483ZM49.5625 81.4523C46.3086 81.4523 43.6623 78.8071 43.6623 75.5532C43.6623 72.2993 46.3086 69.654 49.5625 69.654C52.8153 69.654 55.4616 72.2993 55.4616 75.5532C55.4616 78.8071 52.8153 81.4523 49.5625 81.4523Z" fill="#9924FF"/>
<path d="M52.2444 74.5488L50.5431 74.5796V71.4962C50.5431 70.9144 50.0721 70.4434 49.4903 70.4434C48.9085 70.4434 48.4375 70.9144 48.4375 71.4962V75.6519C48.4375 75.933 48.5514 76.2049 48.7525 76.402C48.9485 76.5949 49.2143 76.7047 49.4893 76.7047H49.5088L52.2825 76.6533C52.8632 76.6431 53.3261 76.1618 53.3158 75.5821C53.3045 75.0013 52.8508 74.4995 52.2444 74.5488Z" fill="#9924FF"/>
<path d="M113.095 89.5614C108.978 87.7461 104.141 89.625 102.327 93.748C101.45 95.7459 101.401 97.9655 102.192 100C102.983 102.033 104.52 103.636 106.517 104.514C107.572 104.979 108.687 105.211 109.806 105.211C110.807 105.211 111.808 105.024 112.769 104.652C113.734 104.276 114.592 103.722 115.332 103.042H115.333C116.152 102.289 116.822 101.377 117.284 100.328C118.163 98.3298 118.211 96.1103 117.421 94.0755C116.628 92.0427 115.091 90.4398 113.095 89.5614ZM114.595 92.0866C115.303 92.77 115.875 93.5899 116.242 94.5339C116.448 95.0634 116.562 95.6093 116.634 96.1593L114.437 95.1927C114.664 94.0373 114.724 92.9855 114.595 92.0866ZM113.194 91.4587C113.491 92.2252 113.488 93.3795 113.261 94.6755L111.814 94.0393L113.056 91.2144C113.102 91.2944 113.155 91.3601 113.194 91.4587ZM107.668 95.4092C107.918 94.8931 108.185 94.4046 108.472 93.947L110.151 94.6858L109.482 96.2065L107.668 95.4092ZM108.973 97.3619L108.305 98.8805L106.626 98.1417C106.77 97.6225 106.949 97.0961 107.16 96.5636L108.973 97.3619ZM110.129 97.8709L111.942 98.6682C111.692 99.1833 111.425 99.6707 111.139 100.128L109.46 99.3895L110.129 97.8709ZM110.637 96.7144L111.306 95.1937L112.98 95.9305C112.837 96.4497 112.647 96.9751 112.438 97.5066L110.637 96.7144ZM111.905 90.6973L110.659 93.5294L109.203 92.8891C109.547 92.4427 109.899 92.0271 110.263 91.6906C110.857 91.1416 111.427 90.8081 111.905 90.6973ZM109.815 90.133C109.933 90.133 110.051 90.1627 110.17 90.1699C109.916 90.3474 109.663 90.5291 109.406 90.7671C108.925 91.2124 108.463 91.7666 108.02 92.3699L105.835 91.4095C106.996 90.5927 108.383 90.133 109.815 90.133ZM104.779 92.3227L107.308 93.435C107.025 93.8988 106.76 94.3873 106.513 94.9003L103.78 93.6987C104.061 93.1918 104.395 92.7311 104.779 92.3227ZM104.989 101.967C104.293 101.288 103.732 100.476 103.369 99.5435C103.162 99.013 103.046 98.4671 102.975 97.9182L105.156 98.8776C105.01 99.6133 104.913 100.328 104.91 100.983C104.908 101.338 104.947 101.655 104.989 101.967ZM105.462 97.6308L102.94 96.5216C102.983 95.9582 103.102 95.4041 103.284 94.8593L106.005 96.0557C105.793 96.5852 105.613 97.1095 105.462 97.6308ZM106.172 100.989C106.175 100.493 106.243 99.9519 106.34 99.3957L107.796 100.036L106.555 102.858C106.313 102.432 106.168 101.799 106.172 100.989ZM107.711 103.367L108.953 100.545L110.409 101.185C110.065 101.632 109.713 102.047 109.349 102.385C108.755 102.933 108.188 103.255 107.711 103.367ZM112.31 103.475C111.385 103.836 110.415 103.973 109.451 103.923C109.701 103.747 109.952 103.544 110.206 103.309C110.686 102.864 111.149 102.31 111.593 101.705L113.774 102.665C113.32 102.984 112.84 103.268 112.31 103.475ZM114.825 101.749L112.304 100.639C112.586 100.176 112.851 99.6881 113.098 99.1761L115.817 100.372C115.539 100.874 115.211 101.337 114.825 101.749ZM116.324 99.2161L113.594 98.0156C113.803 97.4902 114.016 96.9638 114.164 96.4518L116.669 97.5538C116.626 98.1172 116.507 98.6713 116.324 99.2161Z" fill="#9924FF"/>
</svg>
