<svg width="165" height="132" viewBox="0 0 165 132" fill="none" xmlns="http://www.w3.org/2000/svg">
<path d="M156.489 0H8.23627C3.69518 0 0 3.69518 0 8.23627V123.764C0 128.305 3.69518 132 8.23627 132H156.489C161.03 132 164.725 128.305 164.725 123.764V8.23627C164.725 3.69518 161.03 0 156.489 0ZM159.235 123.764C159.235 125.279 158.004 126.509 156.489 126.509L8.23627 126.51C6.72139 126.51 5.49085 125.28 5.49085 123.765V30.4488H159.235V123.765V123.764ZM159.235 24.9567L5.49085 24.9579V8.23781C5.49085 6.72293 6.72139 5.49239 8.23627 5.49239H156.489C158.004 5.49239 159.235 6.72293 159.235 8.23781V24.9579V24.9567Z" fill="white"/>
<path d="M150.29 12.4785H94.3489C92.8304 12.4785 91.6035 13.7054 91.6035 15.2239C91.6035 16.7425 92.8304 17.9694 94.3489 17.9694H150.29C151.808 17.9694 153.035 16.7425 153.035 15.2239C153.035 13.7054 151.808 12.4785 150.29 12.4785Z" fill="white"/>
<path d="M21.0842 116.108H61.7322C64.1369 116.108 66.4154 115.059 67.9805 113.234C69.5481 111.408 70.2369 108.995 69.8692 106.618L63.3244 64.1472C62.6981 60.1002 59.2775 57.1659 55.1838 57.1659H53.1492V52.5834C53.1492 46.1096 47.8802 40.8418 41.4076 40.8418C34.9337 40.8418 29.666 46.1108 29.666 52.5834V57.1659H27.629C23.5353 57.1659 20.1147 60.1013 19.4884 64.1472L12.9436 106.618C12.5759 108.996 13.2647 111.409 14.8323 113.234C16.3975 115.06 18.6759 116.108 21.0806 116.108H21.0842ZM35.1571 52.5838C35.1571 49.1362 37.9601 46.333 41.4079 46.333C44.8555 46.333 47.6587 49.1361 47.6587 52.5838V57.1663H35.1537V52.5838H35.1571ZM24.9168 64.9846C25.1252 63.6364 26.265 62.6559 27.6292 62.6559H29.6662V68.4323C29.6662 69.9509 30.893 71.1777 32.4116 71.1777C33.9301 71.1777 35.157 69.9509 35.157 68.4323V62.6559H47.662V68.4323C47.662 69.9509 48.8889 71.1777 50.4075 71.1777C51.926 71.1777 53.1529 69.9509 53.1529 68.4323V62.6559H55.1875C56.5516 62.6559 57.6914 63.6328 57.8998 64.9846L64.4445 107.456C64.5683 108.26 64.3453 109.043 63.8158 109.663C63.2863 110.281 62.5448 110.621 61.7322 110.621H21.0843C20.2717 110.621 19.5326 110.281 19.0007 109.663C18.4712 109.043 18.2482 108.26 18.3719 107.456L24.9168 64.9846Z" fill="#9924FF"/>
<path d="M87.3206 116.108H149.135C150.654 116.108 151.88 114.881 151.88 113.363V86.639C151.88 85.1204 150.654 83.8936 149.135 83.8936H87.3206C85.8021 83.8936 84.5752 85.1204 84.5752 86.639V113.363C84.5752 114.881 85.8021 116.108 87.3206 116.108ZM90.066 89.3844H146.39V110.617H90.066V89.3844Z" fill="white"/>
<path d="M96.2913 58.7584H140.162C141.68 58.7584 142.907 57.5316 142.907 56.013C142.907 54.4945 141.68 53.2676 140.162 53.2676H96.2913C94.7728 53.2676 93.5459 54.4945 93.5459 56.013C93.5459 57.5316 94.7728 58.7584 96.2913 58.7584Z" fill="#9924FF"/>
<path d="M107.272 68.5767C105.753 68.5767 104.526 69.8035 104.526 71.3221C104.526 72.8406 105.753 74.0675 107.272 74.0675H129.177C130.696 74.0675 131.923 72.8406 131.923 71.3221C131.923 69.8035 130.696 68.5767 129.177 68.5767H107.272Z" fill="#9924FF"/>
<path d="M17.1852 15.2552C17.1852 16.7713 15.9571 18.0006 14.4398 18.0006C12.9237 18.0006 11.6943 16.7713 11.6943 15.2552C11.6943 13.7391 12.9237 12.5098 14.4398 12.5098C15.9571 12.5098 17.1852 13.7391 17.1852 15.2552Z" fill="#9924FF"/>
<path d="M31.2408 15.2552C31.2408 16.7713 30.0115 18.0006 28.4954 18.0006C26.9793 18.0006 25.75 16.7713 25.75 15.2552C25.75 13.7391 26.9793 12.5098 28.4954 12.5098C30.0115 12.5098 31.2408 13.7391 31.2408 15.2552Z" fill="#9924FF"/>
<path d="M45.3004 15.2274C45.3004 16.7447 44.0711 17.9728 42.555 17.9728C41.0389 17.9728 39.8096 16.7447 39.8096 15.2274C39.8096 13.7113 41.0389 12.4819 42.555 12.4819C44.0711 12.4819 45.3004 13.7113 45.3004 15.2274Z" fill="#9924FF"/>
</svg>
