<svg width="130" height="134" viewBox="0 0 130 134" fill="none" xmlns="http://www.w3.org/2000/svg">
<path d="M108.38 46.8931C107.622 46.8931 107.007 47.5081 107.007 48.2656V74.5151C107.007 75.2735 107.622 75.8876 108.38 75.8876C109.138 75.8876 109.753 75.2735 109.753 74.5151V48.2656C109.753 47.9015 109.608 47.5522 109.351 47.2948C109.094 47.0374 108.744 46.8931 108.38 46.8931Z" fill="#9924FF" stroke="#9924FF"/>
<path d="M125.678 53.3458L122.355 52.3024V32.534C122.353 30.5677 121.319 28.7474 119.631 27.74C117.943 26.7324 115.85 26.6865 114.118 27.6195C103.878 33.1104 97.0132 37.2288 84.5342 40.826C80.7587 41.9107 79.8809 42.1985 78.4531 42.5285L78.4522 42.5276C77.6864 41.4336 76.438 40.7782 75.1024 40.7708H72.5899C71.6651 40.7773 70.7697 41.0953 70.048 41.6726C69.3255 42.2509 68.8189 43.0543 68.6093 43.9552C66.8112 44.0646 67.7857 44.038 49.9257 44.038C47.8352 44.0389 45.8192 44.812 44.2637 46.2075C42.7082 47.603 41.7227 49.5243 41.4956 51.6019L34.989 54.4158C34.2747 54.7192 33.6662 55.2257 33.2387 55.8729C32.8112 56.5201 32.5851 57.2785 32.5869 58.0544V66.8539C32.5869 67.627 32.8131 68.3836 33.2378 69.0298C33.6625 69.6761 34.2665 70.1845 34.9752 70.4915L41.4957 73.2374C41.7219 75.2801 42.6807 77.1711 44.1957 78.5601C45.7107 79.9491 47.679 80.7406 49.7325 80.7875V84.9059C49.7371 85.7296 50.0423 86.5238 50.5911 87.1379C51.14 87.752 51.8938 88.1454 52.7119 88.242C53.0272 96.5386 56.2319 104.464 61.7724 110.646C62.917 111.897 64.5478 112.591 66.2429 112.55C67.9381 112.507 69.5322 111.733 70.6131 110.426V110.33V110.331C71.5223 109.272 72.0169 107.919 72.0068 106.525C71.9967 105.129 71.4828 103.784 70.558 102.739C66.9627 98.7152 64.8419 93.5884 64.5458 88.2006C65.3134 88.0489 66.0066 87.638 66.5066 87.0349C67.0067 86.4319 67.2835 85.6753 67.2908 84.8921V80.8977H68.6642C68.8738 81.7986 69.3803 82.6021 70.102 83.1803C70.8245 83.7576 71.7199 84.0757 72.6448 84.0821H75.1573C76.4856 84.0729 77.7276 83.4239 78.4934 82.3391C79.1801 82.5037 79.8659 82.682 80.525 82.8742C89.1984 85.0418 97.5715 88.2695 105.454 92.4844C114.638 97.454 114.927 97.8659 116.821 97.8659V97.8649C118.304 97.8686 119.727 97.2812 120.776 96.2332C121.824 95.1843 122.413 93.7612 122.409 92.2784V72.5505L125.731 71.5209H125.73C126.723 71.2102 127.589 70.5887 128.202 69.7485C128.814 68.9083 129.142 67.8934 129.135 66.8536V58.0266C129.141 56.9777 128.807 55.9545 128.184 55.1105C127.561 54.2666 126.681 53.647 125.676 53.3455L125.678 53.3458ZM41.4432 70.2854L36.0754 67.9651V67.966C35.6249 67.773 35.3326 67.3299 35.3335 66.8399V58.0267C35.3326 57.5367 35.6249 57.0936 36.0754 56.9006L41.4432 54.5803V70.2854ZM54.0862 46.7563H60.4018V50.8747H54.0862V46.7563ZM54.0862 53.6207L60.4018 53.6197V57.6287H54.0862V53.6207ZM54.0862 60.3746L60.4018 60.3737V64.3827H54.0862V60.3746ZM54.0862 67.1286H60.4018V71.1375L54.0862 71.1366V67.1286ZM54.0862 73.8825H60.4018V78.0009H54.0862V73.8825ZM51.3403 78.0009H49.9678C48.4528 78.012 46.9958 77.4236 45.913 76.3637C44.83 75.3047 44.2104 73.8595 44.1884 72.3446V52.4943C44.1884 50.9646 44.7988 49.4992 45.8835 48.4218C46.9692 47.3444 48.4391 46.745 49.9678 46.7561H51.3412L51.3403 78.0009ZM52.3837 84.7824L52.3846 80.856H64.4245V84.8916H64.4236C64.4236 85.0598 64.3574 85.2198 64.2388 85.3384C64.1202 85.457 63.9593 85.5232 63.792 85.5232H53.0703C52.903 85.5232 52.7421 85.457 52.6245 85.3384C52.5059 85.2198 52.4388 85.0598 52.4388 84.8916L52.3837 84.7824ZM68.5145 104.565C69.5836 105.865 69.4448 107.775 68.1992 108.906C66.9535 110.038 65.0395 109.994 63.8473 108.806C58.7553 103.151 55.7898 95.8993 55.4596 88.297H61.7742C62.0978 94.3303 64.4758 100.071 68.5145 104.565ZM68.5145 78.1786C66.6198 78.0959 65.8375 78.1786 63.1466 78.1786V46.7563H68.5145V78.1786ZM76.4223 80.0595C76.4223 80.4235 76.2779 80.7728 76.0196 81.0302C75.7622 81.2877 75.4138 81.432 75.0498 81.432H72.5917C71.8342 81.432 71.2192 80.8179 71.2192 80.0595V71.6028H76.3811L76.4223 80.0595ZM76.4223 68.8569H71.2743V63.8054H76.4223V68.8569ZM76.4223 61.0595H71.2604V44.8883C71.2604 44.1298 71.8754 43.5149 72.6329 43.5149H75.1453C75.5094 43.5149 75.8587 43.6601 76.1161 43.9175C76.3735 44.1749 76.5178 44.5242 76.5178 44.8883L76.4223 61.0595ZM119.611 92.3594C119.612 93.3623 119.085 94.2917 118.222 94.8048C117.36 95.3177 116.292 95.338 115.411 94.8581L109.755 91.7968V84.2872C109.755 83.5297 109.14 82.9147 108.382 82.9147C107.624 82.9147 107.009 83.5297 107.009 84.2872V90.314C98.2364 85.5705 88.8751 82.0073 79.1686 79.7165V74.8699C90.6863 77.8493 94.1318 79.8259 94.928 79.8259C95.588 79.8277 96.1552 79.3598 96.2794 78.7117C96.4035 78.0636 96.0495 77.4192 95.4364 77.1765C90.1283 75.1192 84.6953 73.4038 79.1687 72.0424V45.1339C80.5412 44.791 81.1451 44.6127 85.2773 43.4452V43.4461C92.8284 41.2959 100.117 38.312 107.008 34.5501V40.3709C107.008 41.1284 107.623 41.7434 108.382 41.7434C109.139 41.7434 109.754 41.1284 109.754 40.3709V33.0672L115.411 30.006C116.296 29.5233 117.37 29.5463 118.234 30.0657C119.098 30.586 119.622 31.5237 119.611 32.532L119.611 92.3594ZM126.393 66.8535C126.392 67.8004 125.774 68.6351 124.87 68.9127L122.357 69.695V55.185L124.87 55.9673C125.774 56.245 126.392 57.0797 126.393 58.0266V66.8535Z" fill="white" stroke="white"/>
<path d="M94.9276 95.2031C89.947 95.2031 85.1703 97.1824 81.6485 100.704C78.1267 104.226 76.1475 109.003 76.1475 113.983C76.1475 118.964 78.1267 123.741 81.6485 127.262C85.1703 130.785 89.947 132.763 94.9276 132.763C99.9083 132.763 104.685 130.785 108.207 127.262C111.729 123.741 113.708 118.964 113.708 113.983C113.704 109.004 111.724 104.229 108.203 100.708C104.682 97.187 99.9074 95.2069 94.9276 95.2031ZM94.9276 130.005C90.6741 130.005 86.5953 128.315 83.5881 125.307C80.581 122.299 78.8924 118.22 78.8934 113.966C78.8943 109.713 80.5858 105.635 83.5947 102.628C86.6035 99.6216 90.6833 97.9338 94.9368 97.9363C99.1903 97.9391 103.268 99.6315 106.273 102.641C109.279 105.651 110.966 109.731 110.962 113.984C110.955 118.233 109.263 122.306 106.257 125.31C103.251 128.313 99.1767 130.001 94.9276 130.005V130.005Z" fill="white" stroke="white"/>
<path d="M102.504 112.157L93.6771 105.293C92.858 104.708 91.7843 104.619 90.8787 105.059C89.9741 105.501 89.383 106.402 89.3389 107.407V121.135C89.3784 122.143 89.9677 123.049 90.8732 123.493C91.7796 123.937 92.8561 123.849 93.677 123.263L102.504 116.399C103.138 115.878 103.506 115.1 103.506 114.278C103.506 113.457 103.138 112.678 102.504 112.157ZM92.085 121.163C90.2042 121.163 90.3007 121.163 92.085 121.163L91.9885 107.435L100.829 114.216L92.085 121.163Z" fill="#9924FF"/>
<path d="M92.085 121.163C90.2042 121.163 90.3007 121.163 92.085 121.163ZM92.085 121.163L91.9885 107.435L100.829 114.216L92.085 121.163ZM102.504 112.157L93.6771 105.293C92.858 104.708 91.7843 104.619 90.8787 105.059C89.9741 105.501 89.383 106.402 89.3389 107.407V121.135C89.3784 122.143 89.9677 123.049 90.8732 123.493C91.7796 123.937 92.8561 123.849 93.677 123.263L102.504 116.399C103.138 115.878 103.506 115.1 103.506 114.278C103.506 113.457 103.138 112.678 102.504 112.157Z" stroke="#9924FF"/>
<path d="M66.662 33.7285C66.3264 34.1523 66.2703 34.7333 66.5186 35.2141C66.7677 35.694 67.2751 35.9826 67.8157 35.9523C67.9526 35.9523 67.0609 36.0488 80.4999 34.4143V34.4152C85.7583 34.8703 90.9218 32.8157 94.4307 28.8737C97.9396 24.9318 99.382 19.565 98.3211 14.3951C97.2602 9.22588 93.8212 4.86014 89.0427 2.61902C84.2651 0.376885 78.7099 0.523053 74.0554 3.01248C69.4021 5.50094 66.1963 10.0404 65.4086 15.2592C64.6199 20.4771 66.3417 25.7612 70.0528 29.5136L66.662 33.7285ZM67.8975 17.7218C67.8975 13.9251 69.4364 10.2913 72.163 7.65009C74.8905 5.00889 78.5712 3.58769 82.366 3.71006C86.1599 3.83233 89.7425 5.48889 92.2935 8.30009C94.8446 11.1112 96.1462 14.8361 95.9008 18.6246C95.6553 22.413 93.8839 25.9393 90.9919 28.3984C88.0989 30.8565 84.3335 32.0369 80.5551 31.6691C80.3354 31.6691 81.1039 31.5726 70.8769 32.8081L72.9223 30.214C73.3718 29.6394 73.2937 28.813 72.7439 28.3331C69.6598 25.67 67.8911 21.7953 67.8975 17.7218Z" fill="#9924FF" stroke="#9924FF"/>
<path d="M49.5009 99.8019C50.0221 98.9102 50.2115 97.8622 50.035 96.8446C49.8585 95.826 49.328 94.9031 48.5365 94.2385C47.7459 93.5738 46.7448 93.2107 45.7115 93.2126H37.859V85.9089C37.8535 84.5235 37.1797 83.2255 36.0499 82.423C34.9191 81.6205 33.4713 81.4127 32.1614 81.865C30.8514 82.3164 29.8393 83.3726 29.4439 84.7011L28.0715 89.0668C27.6706 90.386 26.8755 91.5499 25.7925 92.403L22.1135 95.2997C21.3312 95.9203 20.365 96.2622 19.3676 96.2742H18.9971C18.6744 95.6849 18.2001 95.1922 17.6237 94.8465C17.0464 94.5018 16.3882 94.317 15.7162 94.3115H8.50897C7.50787 94.3115 6.54722 94.7086 5.8393 95.4165C5.13145 96.1253 4.7334 97.085 4.7334 98.0862V116.386C4.7334 117.388 5.13145 118.347 5.8393 119.055C6.54715 119.763 7.50779 120.161 8.50897 120.161H15.7162C17.0197 120.161 18.2296 119.485 18.9144 118.377C20.7052 118.428 22.4859 118.667 24.2269 119.09C29.2519 120.463 29.9237 120.161 43.4465 120.161C44.9348 120.181 46.3322 119.45 47.1622 118.214C47.9933 116.979 48.145 115.409 47.5649 114.039C49.0909 113.784 50.3706 112.745 50.934 111.304C51.4966 109.862 51.2603 108.232 50.3107 107.01C51.4092 106.062 51.9691 104.634 51.8073 103.193C51.6446 101.751 50.7814 100.483 49.5008 99.8027L49.5009 99.8019ZM16.7466 116.385C16.7392 116.951 16.2823 117.407 15.717 117.415H8.50977C7.9435 117.407 7.48751 116.951 7.48016 116.385V98.0719C7.49487 97.5121 7.949 97.0634 8.50977 97.0561H15.717C16.2823 97.0634 16.7392 97.5203 16.7466 98.0857V116.385ZM37.8599 96.0953C38.3407 95.9032 37.8599 95.9583 45.7124 95.9583C46.6225 95.9583 47.3598 96.6956 47.3598 97.6057C47.3598 98.5149 46.6225 99.2531 45.7124 99.2531C37.778 99.2531 38.1898 99.3496 37.6264 98.9782C37.1227 98.6482 36.8395 98.0681 36.8873 97.4678C36.9361 96.8666 37.3093 96.3407 37.8599 96.0953ZM32.369 117.415C25.9579 117.415 25.1479 115.877 19.4789 115.658L19.4779 98.9782C21.0775 98.9562 22.6246 98.412 23.8851 97.4274C30.2547 92.4164 29.6923 93.4321 32.1219 85.4565C32.3278 84.6971 33.0697 84.2127 33.8474 84.3285C34.6251 84.4443 35.1933 85.1228 35.1694 85.9088V94.8323C34.5994 95.5181 34.2528 96.362 34.1774 97.2499C34.1011 98.1389 34.2988 99.0287 34.7437 99.8019C34.2832 101.165 33.4062 102.349 32.236 103.187C31.0657 104.024 29.6618 104.473 28.2232 104.469C27.4648 104.469 26.8507 105.084 26.8507 105.843C26.8507 106.6 27.4648 107.215 28.2232 107.215C30.2512 107.212 32.2258 106.569 33.8659 105.376C34.1252 106.001 34.5361 106.552 35.0601 106.982C34.5379 107.648 34.2217 108.452 34.1481 109.295C34.0755 110.138 34.2483 110.985 34.6482 111.732C33.6131 112.207 32.7995 113.062 32.3785 114.12C31.9565 115.178 31.9584 116.358 32.3831 117.415L32.369 117.415ZM43.3517 117.415H36.4599C35.604 117.337 34.9495 116.619 34.9495 115.761C34.9495 114.902 35.604 114.184 36.4599 114.107H43.4198C44.2756 114.184 44.9301 114.902 44.9301 115.761C44.9301 116.619 44.2756 117.337 43.4198 117.415H43.3517ZM46.6879 111.36C37.6963 111.36 38.1487 111.443 37.6274 111.127L37.6265 111.127C37.1227 110.831 36.8129 110.291 36.8129 109.706C36.8129 109.122 37.1227 108.582 37.6265 108.286C38.1615 107.957 37.6265 108.052 46.687 108.052C47.5428 108.131 48.1974 108.848 48.1974 109.706C48.1974 110.566 47.5428 111.283 46.687 111.361L46.6879 111.36ZM47.3875 105.293H37.8876C37.0327 105.215 36.3772 104.498 36.3772 103.639C36.3772 102.78 37.0327 102.062 37.8876 101.984H45.7126C47.4693 101.984 47.9777 101.861 48.5816 102.506V102.506C49.0385 102.984 49.1662 103.688 48.9061 104.294C48.6459 104.902 48.0484 105.295 47.3875 105.293Z" fill="#9924FF" stroke="#9924FF"/>
<path d="M12.1197 108.712C11.0478 108.708 10.0182 109.131 9.25896 109.888C8.4987 110.643 8.07123 111.671 8.07031 112.743C8.06939 113.815 8.49411 114.844 9.25251 115.602C10.01 116.359 11.0387 116.785 12.1107 116.784C13.1826 116.782 14.2103 116.355 14.967 115.595C15.7226 114.835 16.1464 113.806 16.1427 112.734C16.1391 111.668 15.7134 110.647 14.9606 109.894C14.2067 109.14 13.1854 108.716 12.12 108.712L12.1197 108.712ZM12.1197 114.024C11.5966 114.03 11.1223 113.719 10.9182 113.238C10.7141 112.756 10.8208 112.199 11.1885 111.826C11.5571 111.454 12.1133 111.342 12.5968 111.541C13.0804 111.739 13.3966 112.211 13.3966 112.734C13.3966 113.442 12.8276 114.017 12.1197 114.024Z" fill="white" stroke="white"/>
<path d="M20.0416 36.475L28.1 44.5334V44.5325C28.932 45.3626 30.06 45.8277 31.2357 45.8259C32.4115 45.825 33.5376 45.3561 34.3678 44.5242C35.1988 43.6922 35.6649 42.5643 35.664 41.3895V36.475C37.498 36.4207 39.2399 35.6568 40.5206 34.3422C41.8021 33.0276 42.5219 31.2673 42.5274 29.4324V8.00275C42.5284 6.14213 41.792 4.3569 40.4802 3.0376C39.1684 1.7175 37.3867 0.971053 35.5261 0.960015H8.06926H8.07018C6.1976 0.952661 4.39938 1.69177 3.07208 3.01279C1.74555 4.33473 1 6.13008 1 8.00266V29.4323C1 31.3003 1.74186 33.0911 3.06288 34.412C4.3839 35.7321 6.17475 36.4749 8.04262 36.4749L20.0416 36.475ZM3.74637 29.4322V8.00264C3.74637 6.86271 4.19866 5.76968 5.00488 4.96443C5.81018 4.15821 6.90321 3.70591 8.04309 3.70591H35.4999C36.6389 3.70591 37.732 4.15821 38.5381 4.96443C39.3434 5.76973 39.7967 6.86275 39.7967 8.00264V29.4322C39.793 30.5703 39.3389 31.6615 38.5336 32.466C37.7292 33.2713 36.638 33.7254 35.4998 33.7291H34.2643C33.5059 33.7291 32.8909 34.3432 32.8909 35.1016V41.3896C32.8918 42.0726 32.48 42.6885 31.8484 42.9496C31.2178 43.2116 30.4915 43.0673 30.008 42.5837L21.5514 34.1271C21.293 33.8697 20.9419 33.7272 20.5769 33.729H8.04332C6.90434 33.7254 5.81404 33.2712 5.00865 32.4659C4.20335 31.6615 3.75004 30.5704 3.74637 29.4322Z" fill="white" stroke="white"/>
<path d="M21.7821 29.2407C24.188 29.2297 26.4952 28.2801 28.2115 26.5941C29.9288 24.9091 30.9208 22.62 30.9758 20.2144C31.0319 17.8094 30.1466 15.4772 28.5095 13.7141C26.6286 11.7238 24.1162 11.449 23.4846 7.65957C23.4 7.17877 23.0672 6.77889 22.6094 6.60975C22.1516 6.43968 21.6377 6.52609 21.2608 6.83589C19.2319 8.49521 18.0442 10.9698 18.0202 13.5908C17.8694 13.4676 17.7315 13.3297 17.5946 13.1927H17.5955C17.35 12.9197 17.0062 12.7552 16.6403 12.7377C16.2745 12.7193 15.9159 12.8489 15.6457 13.0962C13.7675 14.7656 12.6505 17.1282 12.5521 19.6388C12.4529 22.1503 13.3813 24.5929 15.1234 26.4048C16.8646 28.2158 19.2694 29.2399 21.7818 29.2408L21.7821 29.2407ZM16.6755 16.0618C17.5029 16.6961 18.4314 17.188 19.4215 17.5171C19.9225 17.6825 20.475 17.5456 20.8408 17.165C21.2067 16.7835 21.3225 16.2264 21.1368 15.7318C20.5402 14.0596 20.7011 12.2109 21.5763 10.6666C22.9487 13.522 25.3793 14.3732 26.5183 15.5948C27.65 16.8037 28.2742 18.4005 28.2632 20.0561C28.2512 21.7118 27.6059 23.3003 26.4577 24.4934C25.3104 25.6876 23.7485 26.3954 22.0948 26.4717C20.441 26.548 18.8203 25.9863 17.5683 24.9034C16.3153 23.8205 15.5265 22.2982 15.3629 20.6509C15.1993 19.0035 15.6745 17.3561 16.6894 16.0479L16.6755 16.0618Z" fill="#9924FF" stroke="#9924FF"/>
<path d="M75.5433 23.8721C77.5749 24.7923 78.2892 25.2446 79.4697 25.2446C80.5958 25.2483 81.6778 24.8042 82.4757 24.0091L88.2139 18.2708H88.2148C88.8252 17.6586 89.2361 16.8753 89.3906 16.0241C89.545 15.1728 89.4365 14.2949 89.079 13.5071L88.0907 11.3386C88.0034 10.9304 87.735 10.5838 87.3617 10.3981C86.9885 10.2115 86.55 10.2051 86.1712 10.3807C85.7925 10.5562 85.5149 10.8945 85.4156 11.299C85.3163 11.7044 85.4064 12.1328 85.661 12.4637L86.5813 14.6875C86.8405 15.2584 86.7201 15.9313 86.2788 16.3762L80.5406 22.1145C80.0993 22.5539 79.4328 22.6743 78.8656 22.4169L76.6832 21.4287C75.9965 21.1171 75.1876 21.4177 74.8704 22.1007C74.5864 22.7764 74.8823 23.5559 75.5433 23.8721Z" fill="white" stroke="white"/>
</svg>
