<svg width="297" height="185" viewBox="0 0 297 185" fill="none" xmlns="http://www.w3.org/2000/svg">
<g opacity="0.3">
<g opacity="0.5">
<path d="M297 115.326C297 54.368 253.397 18.0949 226.213 1.3974C222.763 -0.71991 219.041 3.67998 221.679 6.76126C230.151 16.6661 240.042 30.8263 246.714 48.6771C240.672 46.9523 234.293 46.033 227.703 46.033C189.434 46.033 158.407 77.0559 158.407 115.329C158.407 153.603 189.434 184.622 227.703 184.622C265.973 184.622 297 153.599 297 115.326Z" fill="#00092F"/>
<path d="M138.589 115.326C138.589 54.368 94.9863 18.0949 67.8021 1.3974C64.3524 -0.71991 60.6308 3.67998 63.2679 6.76126C71.7406 16.6661 81.6317 30.8263 88.3038 48.6771C82.2617 46.9523 75.8823 46.033 69.2928 46.033C31.0229 46.033 0 77.0559 0 115.326C0 153.596 31.0229 184.622 69.2962 184.622C107.57 184.622 138.589 153.599 138.589 115.326Z" fill="#00092F"/>
</g>
</g>
</svg>
